<svg width="68" height="67" viewBox="0 0 68 67" fill="none" xmlns="http://www.w3.org/2000/svg">
<g filter="url(#filter0_d_101_3)">
<path d="M22.408 5.504C22.92 6.208 23.4 7.104 23.848 8.192C24.36 9.216 24.744 10.272 25 11.36C25.384 13.088 25.8 14.976 26.248 17.024C26.76 19.008 27.24 21.088 27.688 23.264C28.2 25.44 28.648 27.648 29.032 29.888C29.48 32.128 29.864 34.272 30.184 36.32C30.568 39.136 30.344 41.824 29.512 44.384C28.744 47.008 27.432 49.344 25.576 51.392C23.72 53.44 21.416 55.072 18.664 56.288C15.912 57.504 12.808 58.176 9.352 58.304C8.584 58.24 7.784 57.856 6.952 57.152C6.12 56.512 5.704 55.84 5.704 55.136C5.64 54.432 5.96 53.856 6.664 53.408C7.432 53.024 8.2 52.768 8.968 52.64C10.312 52.512 11.688 52.224 13.096 51.776C14.568 51.392 15.944 50.816 17.224 50.048C18.504 49.28 19.656 48.352 20.68 47.264C21.768 46.176 22.6 44.896 23.176 43.424C23.624 42.272 23.848 40.864 23.848 39.2C23.848 37.472 23.72 35.776 23.464 34.112C23.272 32.448 22.984 30.88 22.6 29.408C22.28 27.872 21.992 26.72 21.736 25.952C21.288 26.4 20.712 26.88 20.008 27.392C19.368 27.904 18.632 28.384 17.8 28.832C16.968 29.28 16.04 29.632 15.016 29.888C14.056 30.144 13.064 30.24 12.04 30.176C10.952 30.112 9.928 29.728 8.968 29.024C8.072 28.32 7.272 27.424 6.568 26.336C5.864 25.184 5.288 23.872 4.84 22.4C4.456 20.928 4.264 19.392 4.264 17.792C4.392 13.952 5.352 10.56 7.144 7.616C9 4.608 11.944 2.272 15.976 0.607998C16.296 0.543999 16.712 0.479999 17.224 0.415998C17.8 0.351998 18.376 0.351998 18.952 0.415998C19.528 0.415998 20.072 0.479998 20.584 0.607998C21.16 0.735998 21.64 0.927999 22.024 1.184C22.728 1.696 23.08 2.432 23.08 3.392C23.08 4.352 22.856 5.056 22.408 5.504ZM10.312 18.656C10.312 19.36 10.376 20.16 10.504 21.056C10.632 21.888 11.048 22.496 11.752 22.88C12.52 23.328 13.448 23.392 14.536 23.072C15.688 22.752 16.744 22.208 17.704 21.44C18.6 20.736 19.176 19.968 19.432 19.136C19.752 18.24 19.752 17.056 19.432 15.584C19.112 14.112 18.76 12.576 18.376 10.976C17.992 9.376 17.736 7.936 17.608 6.656C16.84 7.04 16.008 7.584 15.112 8.288C14.28 8.992 13.512 9.888 12.808 10.976C12.104 12 11.496 13.152 10.984 14.432C10.536 15.712 10.312 17.12 10.312 18.656ZM54.9393 5.504C55.4513 6.208 55.9313 7.104 56.3793 8.192C56.8913 9.216 57.2753 10.272 57.5312 11.36C57.9153 13.088 58.3313 14.976 58.7793 17.024C59.2913 19.008 59.7713 21.088 60.2193 23.264C60.7313 25.44 61.1793 27.648 61.5633 29.888C62.0113 32.128 62.3953 34.272 62.7153 36.32C63.0993 39.136 62.8753 41.824 62.0433 44.384C61.2753 47.008 59.9633 49.344 58.1073 51.392C56.2513 53.44 53.9473 55.072 51.1953 56.288C48.4433 57.504 45.3393 58.176 41.8833 58.304C41.1153 58.24 40.3153 57.856 39.4833 57.152C38.6513 56.512 38.2353 55.84 38.2353 55.136C38.1713 54.432 38.4913 53.856 39.1953 53.408C39.9633 53.024 40.7313 52.768 41.4993 52.64C42.8433 52.512 44.2193 52.224 45.6273 51.776C47.0993 51.392 48.4753 50.816 49.7553 50.048C51.0353 49.28 52.1873 48.352 53.2113 47.264C54.2993 46.176 55.1313 44.896 55.7073 43.424C56.1553 42.272 56.3793 40.864 56.3793 39.2C56.3793 37.472 56.2513 35.776 55.9953 34.112C55.8033 32.448 55.5153 30.88 55.1313 29.408C54.8113 27.872 54.5233 26.72 54.2673 25.952C53.8193 26.4 53.2433 26.88 52.5393 27.392C51.8993 27.904 51.1633 28.384 50.3313 28.832C49.4993 29.28 48.5713 29.632 47.5473 29.888C46.5873 30.144 45.5953 30.24 44.5713 30.176C43.4833 30.112 42.4593 29.728 41.4993 29.024C40.6033 28.32 39.8033 27.424 39.0993 26.336C38.3953 25.184 37.8193 23.872 37.3713 22.4C36.9873 20.928 36.7953 19.392 36.7953 17.792C36.9233 13.952 37.8833 10.56 39.6753 7.616C41.5313 4.608 44.4753 2.272 48.5073 0.607998C48.8273 0.543999 49.2433 0.479999 49.7553 0.415998C50.3313 0.351998 50.9073 0.351998 51.4833 0.415998C52.0593 0.415998 52.6033 0.479998 53.1153 0.607998C53.6913 0.735998 54.1713 0.927999 54.5553 1.184C55.2593 1.696 55.6113 2.432 55.6113 3.392C55.6113 4.352 55.3873 5.056 54.9393 5.504ZM42.8433 18.656C42.8433 19.36 42.9073 20.16 43.0353 21.056C43.1633 21.888 43.5793 22.496 44.2833 22.88C45.0513 23.328 45.9793 23.392 47.0673 23.072C48.2193 22.752 49.2753 22.208 50.2353 21.44C51.1313 20.736 51.7073 19.968 51.9633 19.136C52.2833 18.24 52.2833 17.056 51.9633 15.584C51.6433 14.112 51.2913 12.576 50.9073 10.976C50.5233 9.376 50.2673 7.936 50.1393 6.656C49.3713 7.04 48.5393 7.584 47.6432 8.288C46.8113 8.992 46.0433 9.888 45.3393 10.976C44.6353 12 44.0273 13.152 43.5153 14.432C43.0673 15.712 42.8433 17.12 42.8433 18.656Z" fill="black"/>
<path d="M22.408 5.504L20.9938 4.08978L19.7854 5.29822L20.7905 6.68034L22.408 5.504ZM23.848 8.192L21.9986 8.9535L22.0265 9.02107L22.0591 9.08642L23.848 8.192ZM25 11.36L26.9524 10.9261L26.9497 10.914L26.9468 10.9019L25 11.36ZM26.248 17.024L24.2942 17.4514L24.3022 17.4877L24.3114 17.5238L26.248 17.024ZM27.688 23.264L25.7291 23.6673L25.7347 23.6948L25.7412 23.7221L27.688 23.264ZM29.032 29.888L27.0608 30.2259L27.0654 30.2531L27.0708 30.2802L29.032 29.888ZM30.184 36.32L32.1657 36.0498L32.163 36.0305L32.16 36.0112L30.184 36.32ZM29.512 44.384L27.6099 43.7658L27.6008 43.7939L27.5925 43.8222L29.512 44.384ZM25.576 51.392L24.094 50.049L24.094 50.049L25.576 51.392ZM18.664 56.288L19.4723 58.1174L19.4723 58.1174L18.664 56.288ZM9.352 58.304L9.18591 60.2971L9.3058 60.3071L9.42602 60.3026L9.352 58.304ZM6.952 57.152L8.24388 55.6252L8.20833 55.5951L8.17142 55.5668L6.952 57.152ZM5.704 55.136H7.704V55.0453L7.69579 54.9549L5.704 55.136ZM6.664 53.408L5.76957 51.6191L5.67729 51.6653L5.59025 51.7207L6.664 53.408ZM8.968 52.64L8.77838 50.649L8.70847 50.6557L8.6392 50.6672L8.968 52.64ZM13.096 51.776L12.5912 49.8408L12.54 49.8541L12.4896 49.8701L13.096 51.776ZM17.224 50.048L18.253 51.763L18.253 51.763L17.224 50.048ZM20.68 47.264L19.2658 45.8498L19.2444 45.8712L19.2236 45.8933L20.68 47.264ZM23.176 43.424L25.0385 44.1528L25.04 44.1489L23.176 43.424ZM23.464 34.112L21.4772 34.3412L21.4815 34.3788L21.4873 34.4161L23.464 34.112ZM22.6 29.408L20.642 29.8159L20.6522 29.8647L20.6648 29.9128L22.6 29.408ZM21.736 25.952L23.6334 25.3195L22.61 22.2495L20.3218 24.5378L21.736 25.952ZM20.008 27.392L18.8317 25.7745L18.7945 25.8016L18.7586 25.8303L20.008 27.392ZM17.8 28.832L18.7482 30.5929L18.7482 30.5929L17.8 28.832ZM15.016 29.888L14.5309 27.9477L14.5158 27.9515L14.5007 27.9555L15.016 29.888ZM12.04 30.176L12.1648 28.1799L12.1574 28.1795L12.04 30.176ZM8.968 29.024L7.73236 30.5966L7.75848 30.6172L7.78527 30.6368L8.968 29.024ZM6.568 26.336L4.86144 27.3789L4.87487 27.4009L4.88886 27.4225L6.568 26.336ZM4.84 22.4L2.90477 22.9048L2.91493 22.9438L2.92665 22.9823L4.84 22.4ZM4.264 17.792L2.26511 17.7254L2.264 17.7587V17.792H4.264ZM7.144 7.616L5.4419 6.56577L5.4356 6.57611L7.144 7.616ZM15.976 0.607998L15.5838 -1.35316L15.3929 -1.315L15.213 -1.24075L15.976 0.607998ZM17.224 0.415998L17.0031 -1.57177L16.9895 -1.57026L16.9759 -1.56856L17.224 0.415998ZM18.952 0.415998L18.7311 2.40377L18.8412 2.416H18.952V0.415998ZM20.584 0.607998L20.0989 2.54828L20.1245 2.55466L20.1501 2.56037L20.584 0.607998ZM22.024 1.184L23.2003 -0.433474L23.1673 -0.45747L23.1334 -0.4801L22.024 1.184ZM10.504 21.056L8.5241 21.3388L8.52562 21.3495L8.52726 21.3601L10.504 21.056ZM11.752 22.88L12.7597 21.1524L12.7349 21.138L12.7097 21.1242L11.752 22.88ZM14.536 23.072L14.0007 21.145L13.9862 21.149L13.9717 21.1533L14.536 23.072ZM17.704 21.44L16.4684 19.8674L16.4615 19.8728L16.4546 19.8783L17.704 21.44ZM19.432 19.136L17.5485 18.4633L17.5335 18.5053L17.5204 18.5478L19.432 19.136ZM19.432 15.584L17.4776 16.0089L17.4776 16.0089L19.432 15.584ZM17.608 6.656L19.5981 6.45699L19.3093 3.56927L16.7136 4.86714L17.608 6.656ZM15.112 8.288L13.8764 6.71536L13.8478 6.73778L13.8201 6.76123L15.112 8.288ZM12.808 10.976L14.4561 12.1091L14.4719 12.086L14.4871 12.0625L12.808 10.976ZM10.984 14.432L9.12705 13.6892L9.11077 13.7299L9.09628 13.7713L10.984 14.432ZM20.7905 6.68034C21.1829 7.21981 21.5915 7.96475 21.9986 8.9535L25.6974 7.4305C25.2085 6.24325 24.6571 5.19618 24.0255 4.32765L20.7905 6.68034ZM22.0591 9.08642C22.5034 9.97498 22.8336 10.8848 23.0532 11.8181L26.9468 10.9019C26.6544 9.65919 26.2166 8.45701 25.6369 7.29757L22.0591 9.08642ZM23.0476 11.7939C23.4311 13.5194 23.8466 15.4052 24.2942 17.4514L28.2018 16.5966C27.7534 14.5468 27.3369 12.6566 26.9524 10.9261L23.0476 11.7939ZM24.3114 17.5238C24.8145 19.4733 25.2872 21.521 25.7291 23.6673L29.6469 22.8607C29.1928 20.655 28.7055 18.5427 28.1846 16.5242L24.3114 17.5238ZM25.7412 23.7221C26.2437 25.8576 26.6835 28.0255 27.0608 30.2259L31.0032 29.5501C30.6125 27.2705 30.1564 25.0224 29.6348 22.8059L25.7412 23.7221ZM27.0708 30.2802C27.5138 32.4953 27.8928 34.6113 28.208 36.6288L32.16 36.0112C31.8352 33.9327 31.4462 31.7607 30.9932 29.4958L27.0708 30.2802ZM28.2023 36.5902C28.548 39.1249 28.3437 41.5081 27.6099 43.7658L31.4141 45.0022C32.3443 42.1399 32.588 39.1471 32.1657 36.0498L28.2023 36.5902ZM27.5925 43.8222C26.9104 46.1528 25.7493 48.2224 24.094 50.049L27.058 52.735C29.1147 50.4656 30.5776 47.8632 31.4315 44.9458L27.5925 43.8222ZM24.094 50.049C22.4422 51.8717 20.3745 53.3457 17.8557 54.4586L19.4723 58.1174C22.4575 56.7983 24.9978 55.0083 27.058 52.735L24.094 50.049ZM17.8557 54.4586C15.3675 55.5581 12.5181 56.1854 9.27798 56.3054L9.42602 60.3026C13.0979 60.1666 16.4565 59.4499 19.4723 58.1174L17.8557 54.4586ZM9.51809 56.3109C9.3045 56.2931 8.88541 56.1681 8.24388 55.6252L5.66012 58.6788C6.68259 59.5439 7.8635 60.1869 9.18591 60.2971L9.51809 56.3109ZM8.17142 55.5668C7.88749 55.3483 7.7635 55.1912 7.71653 55.1153C7.67962 55.0557 7.704 55.0718 7.704 55.136H3.704C3.704 56.7199 4.65839 57.911 5.73258 58.7372L8.17142 55.5668ZM7.69579 54.9549C7.69576 54.9547 7.69788 54.9806 7.68916 55.0242C7.6802 55.0691 7.66381 55.1122 7.64431 55.1473C7.60509 55.2179 7.59346 55.1871 7.73775 55.0953L5.59025 51.7207C5.03055 52.0769 4.50691 52.5581 4.14769 53.2047C3.77829 53.8696 3.64665 54.5958 3.71221 55.3171L7.69579 54.9549ZM7.55843 55.1969C8.16627 54.8929 8.74453 54.7048 9.2968 54.6128L8.6392 50.6672C7.65547 50.8312 6.69773 51.1551 5.76957 51.6191L7.55843 55.1969ZM9.15762 54.631C10.6558 54.4883 12.1715 54.169 13.7024 53.6819L12.4896 49.8701C11.2045 50.279 9.96824 50.5357 8.77838 50.649L9.15762 54.631ZM13.6008 53.7112C15.2536 53.2801 16.8065 52.6309 18.253 51.763L16.195 48.333C15.0815 49.0011 13.8824 49.5039 12.5912 49.8408L13.6008 53.7112ZM18.253 51.763C19.6908 50.9003 20.9865 49.8565 22.1364 48.6347L19.2236 45.8933C18.3255 46.8475 17.3173 47.6597 16.195 48.333L18.253 51.763ZM22.0942 48.6782C23.3827 47.3897 24.3648 45.8745 25.0385 44.1528L21.3135 42.6952C20.8352 43.9175 20.1533 44.9623 19.2658 45.8498L22.0942 48.6782ZM25.04 44.1489C25.6031 42.701 25.848 41.0313 25.848 39.2H21.848C21.848 40.6966 21.6449 41.843 21.312 42.6991L25.04 44.1489ZM25.848 39.2C25.848 37.3729 25.7126 35.5751 25.4407 33.8079L21.4873 34.4161C21.7274 35.9769 21.848 37.5711 21.848 39.2H25.848ZM25.4508 33.8828C25.2492 32.135 24.9451 30.4742 24.5352 28.9032L20.6648 29.9128C21.0229 31.2858 21.2948 32.761 21.4772 34.3412L25.4508 33.8828ZM24.558 29.0001C24.2339 27.4445 23.9271 26.2007 23.6334 25.3195L19.8386 26.5845C20.0569 27.2392 20.3261 28.2995 20.642 29.8159L24.558 29.0001ZM20.3218 24.5378C19.9692 24.8904 19.48 25.303 18.8317 25.7745L21.1843 29.0095C21.944 28.457 22.6068 27.9096 23.1502 27.3662L20.3218 24.5378ZM18.7586 25.8303C18.2258 26.2565 17.5933 26.6718 16.8518 27.0711L18.7482 30.5929C19.6707 30.0962 20.5102 29.5515 21.2574 28.9537L18.7586 25.8303ZM16.8518 27.0711C16.182 27.4317 15.4122 27.7274 14.5309 27.9477L15.5011 31.8283C16.6678 31.5366 17.754 31.1283 18.7482 30.5929L16.8518 27.0711ZM14.5007 27.9555C13.756 28.1541 12.9805 28.2309 12.1648 28.1799L11.9152 32.1721C13.1475 32.2491 14.356 32.1339 15.5313 31.8205L14.5007 27.9555ZM12.1574 28.1795C11.4894 28.1402 10.8298 27.9092 10.1507 27.4112L7.78527 30.6368C9.02616 31.5468 10.4146 32.0838 11.9226 32.1725L12.1574 28.1795ZM10.2036 27.4514C9.50334 26.9011 8.8474 26.1772 8.24714 25.2495L4.88886 27.4225C5.6966 28.6708 6.64066 29.7389 7.73236 30.5966L10.2036 27.4514ZM8.27456 25.2931C7.66993 24.3037 7.15887 23.1501 6.75335 21.8177L2.92665 22.9823C3.41714 24.5939 4.05807 26.0643 4.86144 27.3789L8.27456 25.2931ZM6.77523 21.8952C6.4364 20.5963 6.264 19.2305 6.264 17.792H2.264C2.264 19.5535 2.4756 21.2597 2.90477 22.9048L6.77523 21.8952ZM6.26289 17.8586C6.38077 14.3223 7.25924 11.2732 8.8524 8.65589L5.4356 6.57611C3.44476 9.84677 2.40323 13.5817 2.26511 17.7254L6.26289 17.8586ZM8.84607 8.66621C10.4336 6.09331 13.0038 3.99826 16.739 2.45675L15.213 -1.24075C10.8842 0.545739 7.56639 3.12269 5.44193 6.56578L8.84607 8.66621ZM16.3682 2.56916C16.6214 2.51853 16.9842 2.46154 17.4721 2.40055L16.9759 -1.56856C16.4398 -1.50155 15.9706 -1.43053 15.5838 -1.35316L16.3682 2.56916ZM17.4449 2.40377C17.8741 2.35608 18.3019 2.35608 18.7311 2.40377L19.1729 -1.57177C18.4501 -1.65208 17.7259 -1.65208 17.0031 -1.57177L17.4449 2.40377ZM18.952 2.416C19.3792 2.416 19.7593 2.46337 20.0989 2.54828L21.0691 -1.33229C20.3847 -1.50338 19.6768 -1.584 18.952 -1.584V2.416ZM20.1501 2.56037C20.5492 2.64906 20.7844 2.76132 20.9146 2.8481L23.1334 -0.4801C22.4956 -0.905322 21.7708 -1.17706 21.0179 -1.34438L20.1501 2.56037ZM20.8477 2.80147C20.9754 2.89437 21.08 2.99556 21.08 3.392H25.08C25.08 1.86844 24.4806 0.497623 23.2003 -0.433474L20.8477 2.80147ZM21.08 3.392C21.08 4.09054 20.9118 4.17177 20.9938 4.08978L23.8222 6.91821C24.8002 5.94023 25.08 4.61345 25.08 3.392H21.08ZM8.312 18.656C8.312 19.4769 8.38629 20.3741 8.5241 21.3388L12.4839 20.7732C12.3657 19.9459 12.312 19.2431 12.312 18.656H8.312ZM8.52726 21.3601C8.74458 22.7727 9.51193 23.9363 10.7943 24.6358L12.7097 21.1242C12.6099 21.0697 12.5769 21.0275 12.5626 21.0066C12.5464 20.9829 12.5057 20.9142 12.4807 20.7519L8.52726 21.3601ZM10.7443 24.6076C12.1105 25.4045 13.6383 25.4207 15.1003 24.9907L13.9717 21.1533C13.2577 21.3633 12.9295 21.2515 12.7597 21.1524L10.7443 24.6076ZM15.0713 24.999C16.491 24.6047 17.7886 23.9336 18.9534 23.0017L16.4546 19.8783C15.6994 20.4824 14.885 20.8993 14.0007 21.145L15.0713 24.999ZM18.9396 23.0126C20.0579 22.134 20.9357 21.0497 21.3436 19.7242L17.5204 18.5478C17.4163 18.8863 17.1421 19.338 16.4684 19.8674L18.9396 23.0126ZM21.3155 19.8087C21.8145 18.4113 21.7435 16.8021 21.3864 15.1591L17.4776 16.0089C17.7605 17.3099 17.6895 18.0687 17.5485 18.4633L21.3155 19.8087ZM21.3864 15.1591C21.063 13.6719 20.7078 12.1219 20.3208 10.5093L16.4312 11.4427C16.8122 13.0301 17.161 14.5521 17.4776 16.0089L21.3864 15.1591ZM20.3208 10.5093C19.9524 8.97439 19.715 7.62602 19.5981 6.45699L15.6179 6.85501C15.757 8.24598 16.0316 9.77761 16.4312 11.4427L20.3208 10.5093ZM16.7136 4.86714C15.793 5.32741 14.8463 5.95324 13.8764 6.71536L16.3476 9.86064C17.1697 9.21476 17.887 8.75258 18.5024 8.44485L16.7136 4.86714ZM13.8201 6.76123C12.8129 7.61348 11.9201 8.66672 11.1289 9.8895L14.4871 12.0625C15.1039 11.1093 15.7471 10.3705 16.4039 9.81477L13.8201 6.76123ZM11.1599 9.84294C10.3635 11.0013 9.68811 12.2866 9.12705 13.6892L12.841 15.1748C13.3039 14.0174 13.8445 12.9987 14.4561 12.1091L11.1599 9.84294ZM9.09628 13.7713C8.56481 15.2898 8.312 16.9245 8.312 18.656H12.312C12.312 17.3155 12.5072 16.1342 12.8717 15.0927L9.09628 13.7713ZM54.9393 5.504L53.525 4.08978L52.3166 5.29822L53.3218 6.68034L54.9393 5.504ZM56.3793 8.192L54.5299 8.9535L54.5577 9.02107L54.5904 9.08642L56.3793 8.192ZM57.5312 11.36L59.4836 10.9261L59.4809 10.914L59.4781 10.9019L57.5312 11.36ZM58.7793 17.024L56.8255 17.4514L56.8334 17.4877L56.8427 17.5238L58.7793 17.024ZM60.2193 23.264L58.2603 23.6673L58.266 23.6948L58.2724 23.7221L60.2193 23.264ZM61.5633 29.888L59.592 30.2259L59.5967 30.2531L59.6021 30.2802L61.5633 29.888ZM62.7153 36.32L64.6969 36.0498L64.6943 36.0305L64.6913 36.0112L62.7153 36.32ZM62.0433 44.384L60.1412 43.7658L60.1321 43.7939L60.1238 43.8222L62.0433 44.384ZM58.1073 51.392L56.6253 50.049L56.6253 50.049L58.1073 51.392ZM51.1953 56.288L52.0036 58.1174L52.0036 58.1174L51.1953 56.288ZM41.8833 58.304L41.7172 60.2971L41.8371 60.3071L41.9573 60.3026L41.8833 58.304ZM39.4833 57.152L40.7751 55.6252L40.7396 55.5951L40.7027 55.5668L39.4833 57.152ZM38.2353 55.136H40.2353V55.0453L40.227 54.9549L38.2353 55.136ZM39.1953 53.408L38.3008 51.6191L38.2085 51.6653L38.1215 51.7207L39.1953 53.408ZM41.4993 52.64L41.3096 50.649L41.2397 50.6557L41.1705 50.6672L41.4993 52.64ZM45.6273 51.776L45.1224 49.8408L45.0712 49.8541L45.0208 49.8701L45.6273 51.776ZM49.7553 50.048L50.7842 51.763L50.7842 51.763L49.7553 50.048ZM53.2113 47.264L51.797 45.8498L51.7756 45.8712L51.7549 45.8933L53.2113 47.264ZM55.7073 43.424L57.5697 44.1528L57.5713 44.1489L55.7073 43.424ZM55.9953 34.112L54.0084 34.3412L54.0128 34.3788L54.0185 34.4161L55.9953 34.112ZM55.1313 29.408L53.1733 29.8159L53.1834 29.8647L53.196 29.9128L55.1313 29.408ZM54.2673 25.952L56.1646 25.3195L55.1413 22.2495L52.853 24.5378L54.2673 25.952ZM52.5393 27.392L51.3629 25.7745L51.3257 25.8016L51.2899 25.8303L52.5393 27.392ZM50.3313 28.832L51.2795 30.5929L51.2795 30.5929L50.3313 28.832ZM47.5473 29.888L47.0622 27.9477L47.047 27.9515L47.0319 27.9555L47.5473 29.888ZM44.5713 30.176L44.696 28.1799L44.6887 28.1795L44.5713 30.176ZM41.4993 29.024L40.2636 30.5966L40.2897 30.6172L40.3165 30.6368L41.4993 29.024ZM39.0993 26.336L37.3927 27.3789L37.4061 27.4009L37.4201 27.4225L39.0993 26.336ZM37.3713 22.4L35.436 22.9048L35.4462 22.9438L35.4579 22.9823L37.3713 22.4ZM36.7953 17.792L34.7964 17.7254L34.7953 17.7587V17.792H36.7953ZM39.6753 7.616L37.9731 6.56577L37.9669 6.57611L39.6753 7.616ZM48.5073 0.607998L48.115 -1.35316L47.9242 -1.315L47.7443 -1.24075L48.5073 0.607998ZM49.7553 0.415998L49.5344 -1.57177L49.5208 -1.57026L49.5072 -1.56856L49.7553 0.415998ZM51.4833 0.415998L51.2624 2.40377L51.3725 2.416H51.4833V0.415998ZM53.1153 0.607998L52.6302 2.54828L52.6557 2.55466L52.6814 2.56037L53.1153 0.607998ZM54.5553 1.184L55.7316 -0.433474L55.6986 -0.45747L55.6647 -0.4801L54.5553 1.184ZM43.0353 21.056L41.0554 21.3388L41.0569 21.3495L41.0585 21.3601L43.0353 21.056ZM44.2833 22.88L45.291 21.1524L45.2662 21.138L45.241 21.1242L44.2833 22.88ZM47.0673 23.072L46.532 21.145L46.5174 21.149L46.5029 21.1533L47.0673 23.072ZM50.2353 21.44L48.9996 19.8674L48.9927 19.8728L48.9859 19.8783L50.2353 21.44ZM51.9633 19.136L50.0798 18.4633L50.0648 18.5053L50.0517 18.5478L51.9633 19.136ZM51.9633 15.584L50.0089 16.0089L50.0089 16.0089L51.9633 15.584ZM50.1393 6.656L52.1293 6.45699L51.8406 3.56927L49.2448 4.86714L50.1393 6.656ZM47.6432 8.288L46.4076 6.71536L46.3791 6.73778L46.3514 6.76123L47.6432 8.288ZM45.3393 10.976L46.9873 12.1091L47.0032 12.086L47.0184 12.0625L45.3393 10.976ZM43.5153 14.432L41.6583 13.6892L41.642 13.7299L41.6275 13.7713L43.5153 14.432ZM53.3218 6.68034C53.7141 7.21981 54.1228 7.96475 54.5299 8.9535L58.2286 7.4305C57.7397 6.24325 57.1884 5.19618 56.5567 4.32765L53.3218 6.68034ZM54.5904 9.08642C55.0347 9.97498 55.3648 10.8848 55.5844 11.8181L59.4781 10.9019C59.1857 9.65919 58.7478 8.45701 58.1681 7.29757L54.5904 9.08642ZM55.5789 11.7939C55.9623 13.5194 56.3778 15.4052 56.8255 17.4514L60.7331 16.5966C60.2847 14.5468 59.8682 12.6566 59.4836 10.9261L55.5789 11.7939ZM56.8427 17.5238C57.3458 19.4733 57.8184 21.521 58.2603 23.6673L62.1782 22.8607C61.7241 20.655 61.2367 18.5427 60.7158 16.5242L56.8427 17.5238ZM58.2724 23.7221C58.7749 25.8576 59.2148 28.0255 59.592 30.2259L63.5345 29.5501C63.1437 27.2705 62.6876 25.0224 62.1661 22.8059L58.2724 23.7221ZM59.6021 30.2802C60.0451 32.4953 60.424 34.6113 60.7392 36.6288L64.6913 36.0112C64.3665 33.9327 63.9774 31.7607 63.5244 29.4958L59.6021 30.2802ZM60.7336 36.5902C61.0792 39.1249 60.8749 41.5081 60.1412 43.7658L63.9453 45.0022C64.8756 42.1399 65.1193 39.1471 64.6969 36.0498L60.7336 36.5902ZM60.1238 43.8222C59.4416 46.1528 58.2806 48.2224 56.6253 50.049L59.5892 52.735C61.6459 50.4656 63.1089 47.8632 63.9627 44.9458L60.1238 43.8222ZM56.6253 50.049C54.9734 51.8717 52.9057 53.3457 50.3869 54.4586L52.0036 58.1174C54.9888 56.7983 57.5291 55.0083 59.5892 52.735L56.6253 50.049ZM50.3869 54.4586C47.8987 55.5581 45.0494 56.1854 41.8092 56.3054L41.9573 60.3026C45.6291 60.1666 48.9878 59.4499 52.0036 58.1174L50.3869 54.4586ZM42.0493 56.3109C41.8357 56.2931 41.4167 56.1681 40.7751 55.6252L38.1914 58.6788C39.2138 59.5439 40.3948 60.1869 41.7172 60.2971L42.0493 56.3109ZM40.7027 55.5668C40.4187 55.3483 40.2948 55.1912 40.2478 55.1153C40.2109 55.0557 40.2353 55.0718 40.2353 55.136H36.2353C36.2353 56.7199 37.1896 57.911 38.2638 58.7372L40.7027 55.5668ZM40.227 54.9549C40.227 54.9547 40.2291 54.9806 40.2204 55.0242C40.2114 55.0691 40.1951 55.1122 40.1756 55.1473C40.1363 55.2179 40.1247 55.1871 40.269 55.0953L38.1215 51.7207C37.5618 52.0769 37.0382 52.5581 36.6789 53.2047C36.3095 53.8696 36.1779 54.5958 36.2435 55.3171L40.227 54.9549ZM40.0897 55.1969C40.6975 54.8929 41.2758 54.7048 41.828 54.6128L41.1705 50.6672C40.1867 50.8312 39.229 51.1551 38.3008 51.6191L40.0897 55.1969ZM41.6889 54.631C43.187 54.4883 44.7027 54.169 46.2337 53.6819L45.0208 49.8701C43.7358 50.279 42.4995 50.5357 41.3096 50.649L41.6889 54.631ZM46.1321 53.7112C47.7848 53.2801 49.3378 52.6309 50.7842 51.763L48.7263 48.333C47.6127 49.0011 46.4137 49.5039 45.1224 49.8408L46.1321 53.7112ZM50.7842 51.763C52.222 50.9003 53.5178 49.8565 54.6677 48.6347L51.7549 45.8933C50.8567 46.8475 49.8485 47.6597 48.7263 48.333L50.7842 51.763ZM54.6255 48.6782C55.914 47.3897 56.896 45.8745 57.5697 44.1528L53.8448 42.6952C53.3665 43.9175 52.6845 44.9623 51.797 45.8498L54.6255 48.6782ZM57.5713 44.1489C58.1343 42.701 58.3793 41.0313 58.3793 39.2H54.3793C54.3793 40.6966 54.1762 41.843 53.8432 42.6991L57.5713 44.1489ZM58.3793 39.2C58.3793 37.3729 58.2439 35.5751 57.972 33.8079L54.0185 34.4161C54.2586 35.9769 54.3793 37.5711 54.3793 39.2H58.3793ZM57.9821 33.8828C57.7804 32.135 57.4763 30.4742 57.0665 28.9032L53.196 29.9128C53.5542 31.2858 53.8261 32.761 54.0084 34.3412L57.9821 33.8828ZM57.0892 29.0001C56.7651 27.4445 56.4584 26.2007 56.1646 25.3195L52.3699 26.5845C52.5881 27.2392 52.8574 28.2995 53.1733 29.8159L57.0892 29.0001ZM52.853 24.5378C52.5004 24.8904 52.0113 25.303 51.3629 25.7745L53.7156 29.0095C54.4752 28.457 55.1381 27.9096 55.6815 27.3662L52.853 24.5378ZM51.2899 25.8303C50.757 26.2565 50.1246 26.6718 49.3831 27.0711L51.2795 30.5929C52.2019 30.0962 53.0415 29.5515 53.7886 28.9537L51.2899 25.8303ZM49.3831 27.0711C48.7133 27.4317 47.9435 27.7274 47.0622 27.9477L48.0323 31.8283C49.199 31.5366 50.2852 31.1283 51.2795 30.5929L49.3831 27.0711ZM47.0319 27.9555C46.2872 28.1541 45.5117 28.2309 44.696 28.1799L44.4465 32.1721C45.6788 32.2491 46.8873 32.1339 48.0626 31.8205L47.0319 27.9555ZM44.6887 28.1795C44.0207 28.1402 43.3611 27.9092 42.682 27.4112L40.3165 30.6368C41.5574 31.5468 42.9458 32.0838 44.4538 32.1725L44.6887 28.1795ZM42.7349 27.4514C42.0346 26.9011 41.3786 26.1772 40.7784 25.2495L37.4201 27.4225C38.2279 28.6708 39.1719 29.7389 40.2636 30.5966L42.7349 27.4514ZM40.8058 25.2931C40.2012 24.3037 39.6901 23.1501 39.2846 21.8177L35.4579 22.9823C35.9484 24.5939 36.5893 26.0643 37.3927 27.3789L40.8058 25.2931ZM39.3065 21.8952C38.9677 20.5963 38.7953 19.2305 38.7953 17.792H34.7953C34.7953 19.5535 35.0068 21.2597 35.436 22.9048L39.3065 21.8952ZM38.7941 17.8586C38.912 14.3223 39.7905 11.2732 41.3836 8.65589L37.9669 6.57611C35.976 9.84677 34.9345 13.5817 34.7964 17.7254L38.7941 17.8586ZM41.3773 8.66621C42.9649 6.09331 45.535 3.99826 49.2702 2.45675L47.7443 -1.24075C43.4155 0.545739 40.0976 3.12269 37.9732 6.56578L41.3773 8.66621ZM48.8995 2.56916C49.1526 2.51853 49.5154 2.46154 50.0033 2.40055L49.5072 -1.56856C48.9711 -1.50155 48.5019 -1.43053 48.115 -1.35316L48.8995 2.56916ZM49.9761 2.40377C50.4053 2.35608 50.8332 2.35608 51.2624 2.40377L51.7041 -1.57177C50.9813 -1.65208 50.2572 -1.65208 49.5344 -1.57177L49.9761 2.40377ZM51.4833 2.416C51.9105 2.416 52.2905 2.46337 52.6302 2.54828L53.6003 -1.33229C52.916 -1.50338 52.208 -1.584 51.4833 -1.584V2.416ZM52.6814 2.56037C53.0805 2.64906 53.3157 2.76132 53.4458 2.8481L55.6647 -0.4801C55.0268 -0.905322 54.302 -1.17706 53.5491 -1.34438L52.6814 2.56037ZM53.3789 2.80147C53.5066 2.89437 53.6113 2.99556 53.6113 3.392H57.6113C57.6113 1.86844 57.0119 0.497623 55.7316 -0.433474L53.3789 2.80147ZM53.6113 3.392C53.6113 4.09054 53.4431 4.17177 53.525 4.08978L56.3535 6.91821C57.3314 5.94023 57.6113 4.61345 57.6113 3.392H53.6113ZM40.8433 18.656C40.8433 19.4769 40.9175 20.3741 41.0554 21.3388L45.0151 20.7732C44.897 19.9459 44.8433 19.2431 44.8433 18.656H40.8433ZM41.0585 21.3601C41.2758 22.7727 42.0432 23.9363 43.3255 24.6358L45.241 21.1242C45.1411 21.0697 45.1081 21.0275 45.0939 21.0066C45.0776 20.9829 45.037 20.9142 45.012 20.7519L41.0585 21.3601ZM43.2755 24.6076C44.6418 25.4045 46.1696 25.4207 47.6316 24.9907L46.5029 21.1533C45.7889 21.3633 45.4607 21.2515 45.291 21.1524L43.2755 24.6076ZM47.6025 24.999C49.0222 24.6047 50.3198 23.9336 51.4846 23.0017L48.9859 19.8783C48.2307 20.4824 47.4163 20.8993 46.532 21.145L47.6025 24.999ZM51.4709 23.0126C52.5892 22.134 53.4669 21.0497 53.8748 19.7242L50.0517 18.5478C49.9476 18.8863 49.6733 19.338 48.9996 19.8674L51.4709 23.0126ZM53.8467 19.8087C54.3458 18.4113 54.2748 16.8021 53.9176 15.1591L50.0089 16.0089C50.2917 17.3099 50.2207 18.0687 50.0798 18.4633L53.8467 19.8087ZM53.9176 15.1591C53.5943 13.6719 53.2391 12.1219 52.852 10.5093L48.9625 11.4427C49.3434 13.0301 49.6922 14.5521 50.0089 16.0089L53.9176 15.1591ZM52.852 10.5093C52.4837 8.97439 52.2462 7.62602 52.1293 6.45699L48.1492 6.85501C48.2883 8.24598 48.5628 9.77761 48.9625 11.4427L52.852 10.5093ZM49.2448 4.86714C48.3243 5.32741 47.3776 5.95324 46.4076 6.71536L48.8789 9.86064C49.7009 9.21476 50.4182 8.75258 51.0337 8.44485L49.2448 4.86714ZM46.3514 6.76123C45.3442 7.61348 44.4513 8.66672 43.6601 9.8895L47.0184 12.0625C47.6352 11.1093 48.2783 10.3705 48.9351 9.81477L46.3514 6.76123ZM43.6912 9.84294C42.8948 11.0013 42.2194 12.2866 41.6583 13.6892L45.3722 15.1748C45.8351 14.0174 46.3757 12.9987 46.9873 12.1091L43.6912 9.84294ZM41.6275 13.7713C41.0961 15.2898 40.8433 16.9245 40.8433 18.656H44.8433C44.8433 17.3155 45.0384 16.1342 45.403 15.0927L41.6275 13.7713Z" fill="black"/>
</g>
<defs>
<filter id="filter0_d_101_3" x="0.263977" y="0.319992" width="67.0273" height="65.984" filterUnits="userSpaceOnUse" color-interpolation-filters="sRGB">
<feFlood flood-opacity="0" result="BackgroundImageFix"/>
<feColorMatrix in="SourceAlpha" type="matrix" values="0 0 0 0 0 0 0 0 0 0 0 0 0 0 0 0 0 0 127 0" result="hardAlpha"/>
<feOffset dy="4"/>
<feGaussianBlur stdDeviation="2"/>
<feComposite in2="hardAlpha" operator="out"/>
<feColorMatrix type="matrix" values="0 0 0 0 0 0 0 0 0 0 0 0 0 0 0 0 0 0 0.25 0"/>
<feBlend mode="normal" in2="BackgroundImageFix" result="effect1_dropShadow_101_3"/>
<feBlend mode="normal" in="SourceGraphic" in2="effect1_dropShadow_101_3" result="shape"/>
</filter>
</defs>
</svg>
