<svg width="239" height="83" viewBox="0 0 239 83" fill="none" xmlns="http://www.w3.org/2000/svg">
<g filter="url(#filter0_d_101_2)">
<path d="M25.256 58.464C25.192 59.168 24.872 59.808 24.296 60.384C23.72 61.024 23.08 61.312 22.376 61.248C21.288 61.184 20.456 60.768 19.88 60C19.304 59.232 19.016 58.592 19.016 58.08C19.016 55.648 18.952 53.12 18.824 50.496C18.696 47.808 18.536 45.056 18.344 42.24C17.512 42.368 16.744 42.304 16.04 42.048C15.4 41.728 14.952 41.248 14.696 40.608C14.248 39.52 14.312 38.56 14.888 37.728C15.464 36.896 16.392 36.096 17.672 35.328C17.352 32.96 17.032 30.624 16.712 28.32C16.456 26.016 16.168 23.776 15.848 21.6C15.784 21.216 15.816 20.864 15.944 20.544C16.072 20.224 16.232 19.936 16.424 19.68C16.616 19.36 16.968 19.072 17.48 18.816C18.312 18.496 19.24 18.752 20.264 19.584C21.352 20.416 22.088 21.472 22.472 22.752C22.664 23.968 22.856 25.376 23.048 26.976C23.304 28.512 23.528 30.208 23.72 32.064C25.064 31.232 26.312 30.336 27.464 29.376C28.68 28.416 29.704 27.392 30.536 26.304C31.432 25.216 32.104 24.096 32.552 22.944C33 21.728 33.128 20.48 32.936 19.2C32.808 18.112 32.328 17.152 31.496 16.32C30.664 15.424 29.352 14.944 27.56 14.88C25.96 14.816 24.36 14.944 22.76 15.264C21.224 15.584 19.688 16 18.152 16.512C16.68 17.024 15.208 17.632 13.736 18.336C12.328 19.04 10.952 19.744 9.608 20.448C8.712 20.96 7.816 21.184 6.92 21.12C6.088 20.992 5.544 20.672 5.288 20.16C4.712 18.88 4.744 17.728 5.384 16.704C6.088 15.68 7.144 14.72 8.552 13.824C9.768 13.12 11.208 12.416 12.872 11.712C14.6 10.944 16.392 10.304 18.248 9.792C20.168 9.216 22.088 8.832 24.008 8.64C25.992 8.384 27.88 8.416 29.672 8.736C31.464 8.992 33.064 9.6 34.472 10.56C35.944 11.456 37.128 12.8 38.024 14.592C39.112 17.536 39.4 20.256 38.888 22.752C38.44 25.184 37.48 27.424 36.008 29.472C34.6 31.456 32.84 33.28 30.728 34.944C28.68 36.544 26.6 37.984 24.488 39.264C24.808 42.72 25.032 46.144 25.16 49.536C25.288 52.928 25.32 55.904 25.256 58.464ZM67.6723 14.496C69.5923 15.2 71.1923 16.256 72.4723 17.664C73.8163 19.072 74.8403 20.672 75.5443 22.464C76.2483 24.192 76.6323 25.984 76.6963 27.84C76.8243 29.696 76.6323 31.424 76.1203 33.024C75.4163 34.816 74.5203 36.576 73.4323 38.304C72.3443 40.032 71.0963 41.568 69.6883 42.912C68.2803 44.256 66.6803 45.344 64.8883 46.176C63.0963 47.008 61.1123 47.424 58.9363 47.424C56.3123 47.424 54.1043 46.816 52.3123 45.6C50.5203 44.384 49.1123 42.816 48.0883 40.896C47.0643 38.976 46.3923 36.8 46.0723 34.368C45.8163 31.936 45.8803 29.504 46.2643 27.072C46.5203 25.28 46.9363 23.552 47.5123 21.888C48.1523 20.16 48.9523 18.656 49.9123 17.376C50.8723 16.032 51.9603 14.944 53.1763 14.112C54.4563 13.28 55.8963 12.864 57.4963 12.864C58.3923 12.864 59.5123 13.056 60.8563 13.44C62.2003 13.76 63.4483 14.24 64.6003 14.88C65.4323 14.112 66.4563 13.984 67.6723 14.496ZM64.0243 21.504C63.3203 21.056 62.4883 20.48 61.5283 19.776C60.6323 19.008 59.8323 18.624 59.1283 18.624C58.3603 18.624 57.5923 18.976 56.8243 19.68C56.1203 20.384 55.4803 21.216 54.9043 22.176C54.3923 23.072 53.9443 24 53.5603 24.96C53.1763 25.92 52.9203 26.688 52.7923 27.264C52.6003 28.224 52.4723 29.376 52.4083 30.72C52.3443 32.064 52.4403 33.408 52.6963 34.752C52.9523 36.032 53.4323 37.216 54.1363 38.304C54.9043 39.328 56.0243 40.064 57.4963 40.512C58.3923 40.768 59.4483 40.768 60.6643 40.512C61.8803 40.192 63.0643 39.648 64.2163 38.88C65.4323 38.112 66.5523 37.088 67.5763 35.808C68.6643 34.528 69.4963 33.056 70.0723 31.392C70.7123 29.536 70.7123 27.616 70.0723 25.632C69.4963 23.584 68.2803 22.112 66.4243 21.216C65.9763 21.536 65.5283 21.696 65.0803 21.696C64.6323 21.696 64.2803 21.632 64.0243 21.504ZM110.805 16.608C111.061 16.544 111.445 16.512 111.957 16.512C112.469 16.448 112.949 16.48 113.397 16.608C113.909 16.672 114.325 16.832 114.645 17.088C115.029 17.28 115.253 17.536 115.317 17.856C115.445 18.624 115.317 19.328 114.933 19.968C114.613 20.544 114.005 21.056 113.109 21.504C110.677 22.656 108.149 23.968 105.525 25.44C102.901 26.848 100.661 28.128 98.8048 29.28C99.9568 30.048 101.269 30.912 102.741 31.872C104.277 32.832 105.845 33.856 107.445 34.944C109.045 35.968 110.645 37.088 112.245 38.304C113.845 39.456 115.349 40.608 116.757 41.76C118.037 42.848 118.261 43.84 117.429 44.736C117.045 45.184 116.405 45.504 115.509 45.696C114.677 45.888 113.877 45.792 113.109 45.408C111.701 44.704 110.165 43.872 108.501 42.912C106.837 41.888 105.141 40.864 103.413 39.84C101.685 38.752 99.9888 37.696 98.3248 36.672C96.7248 35.584 95.2528 34.592 93.9088 33.696C94.1648 35.936 94.3888 38.176 94.5807 40.416C94.8368 42.656 95.0608 44.896 95.2528 47.136C95.6368 48.352 95.6048 49.344 95.1568 50.112C94.7088 50.88 93.9728 51.232 92.9488 51.168C91.8608 50.976 91.0608 50.56 90.5488 49.92C90.0368 49.216 89.6528 48.32 89.3968 47.232C89.0128 44.608 88.5648 41.504 88.0528 37.92C87.6048 34.336 87.1248 30.624 86.6128 26.784C86.1008 22.944 85.5888 19.2 85.0768 15.552C84.6288 11.904 84.2128 8.672 83.8288 5.856C83.7007 4.96 83.6048 4 83.5408 2.976C83.5408 1.888 83.8928 1.184 84.5968 0.863995C85.5568 0.479996 86.5488 0.703997 87.5728 1.536C88.5968 2.304 89.3648 3.488 89.8768 5.088C90.3888 8.032 90.9008 11.232 91.4128 14.688C91.9248 18.144 92.4368 21.792 92.9488 25.632C94.2288 24.864 95.7008 24.032 97.3648 23.136C99.0928 22.176 100.789 21.28 102.453 20.448C104.181 19.552 105.781 18.752 107.253 18.048C108.725 17.344 109.909 16.864 110.805 16.608ZM146.637 25.44C144.141 26.912 141.453 28.064 138.573 28.896C135.693 29.664 132.589 30.048 129.261 30.048C129.389 32.288 130.029 34.08 131.181 35.424C132.333 36.704 133.773 37.472 135.501 37.728C136.525 37.856 137.549 37.824 138.573 37.632C139.661 37.44 140.653 37.152 141.549 36.768C142.509 36.32 143.373 35.84 144.141 35.328C144.909 34.816 145.581 34.304 146.157 33.792C146.733 33.28 147.341 32.96 147.981 32.832C148.621 32.64 149.101 32.608 149.421 32.736C150.317 33.056 150.637 34.016 150.381 35.616C149.357 37.664 147.885 39.424 145.965 40.896C144.045 42.304 141.901 43.2 139.533 43.584C137.485 43.968 135.373 43.872 133.197 43.296C131.021 42.72 129.069 41.6 127.341 39.936C125.869 38.464 124.749 36.736 123.981 34.752C123.213 32.768 122.733 30.72 122.541 28.608C122.349 26.624 122.509 24.736 123.021 22.944C123.597 21.152 124.461 19.584 125.613 18.24C126.765 16.832 128.205 15.68 129.933 14.784C131.661 13.888 133.677 13.376 135.981 13.248C138.733 13.056 141.229 13.568 143.469 14.784C145.709 16 147.277 17.696 148.173 19.872C148.685 21.088 148.813 22.144 148.557 23.04C148.365 23.936 147.725 24.736 146.637 25.44ZM135.597 18.912C134.957 19.04 134.253 19.264 133.485 19.584C132.781 19.904 132.109 20.32 131.469 20.832C130.893 21.28 130.349 21.824 129.837 22.464C129.389 23.04 129.133 23.712 129.069 24.48C130.157 24.48 131.341 24.384 132.621 24.192C133.965 24 135.245 23.776 136.461 23.52C137.741 23.2 138.893 22.848 139.917 22.464C141.005 22.08 141.901 21.664 142.605 21.216C142.093 20 141.133 19.264 139.725 19.008C138.381 18.688 137.005 18.656 135.597 18.912ZM164.549 46.464C164.869 48.768 163.909 50.08 161.669 50.4C160.517 50.528 159.557 50.208 158.789 49.44C158.085 48.672 157.637 47.744 157.445 46.656C157.253 45.504 157.317 44.384 157.637 43.296C158.021 42.208 158.725 41.6 159.749 41.472C161.029 41.28 162.117 41.76 163.013 42.912C163.909 44 164.421 45.184 164.549 46.464ZM193.658 21.504C194.17 22.208 194.65 23.104 195.098 24.192C195.61 25.216 195.994 26.272 196.25 27.36C196.634 29.088 197.05 30.976 197.498 33.024C198.01 35.008 198.49 37.088 198.938 39.264C199.45 41.44 199.898 43.648 200.282 45.888C200.73 48.128 201.114 50.272 201.434 52.32C201.818 55.136 201.594 57.824 200.762 60.384C199.994 63.008 198.682 65.344 196.826 67.392C194.97 69.44 192.666 71.072 189.914 72.288C187.162 73.504 184.058 74.176 180.602 74.304C179.834 74.24 179.034 73.856 178.202 73.152C177.37 72.512 176.954 71.84 176.954 71.136C176.89 70.432 177.21 69.856 177.914 69.408C178.682 69.024 179.45 68.768 180.218 68.64C181.562 68.512 182.938 68.224 184.346 67.776C185.818 67.392 187.194 66.816 188.474 66.048C189.754 65.28 190.906 64.352 191.93 63.264C193.018 62.176 193.85 60.896 194.426 59.424C194.874 58.272 195.098 56.864 195.098 55.2C195.098 53.472 194.97 51.776 194.714 50.112C194.522 48.448 194.234 46.88 193.85 45.408C193.53 43.872 193.242 42.72 192.986 41.952C192.538 42.4 191.962 42.88 191.258 43.392C190.618 43.904 189.882 44.384 189.05 44.832C188.218 45.28 187.29 45.632 186.266 45.888C185.306 46.144 184.314 46.24 183.29 46.176C182.202 46.112 181.178 45.728 180.218 45.024C179.322 44.32 178.522 43.424 177.818 42.336C177.114 41.184 176.538 39.872 176.09 38.4C175.706 36.928 175.514 35.392 175.514 33.792C175.642 29.952 176.602 26.56 178.394 23.616C180.25 20.608 183.194 18.272 187.226 16.608C187.546 16.544 187.962 16.48 188.474 16.416C189.05 16.352 189.626 16.352 190.202 16.416C190.778 16.416 191.322 16.48 191.834 16.608C192.41 16.736 192.89 16.928 193.274 17.184C193.978 17.696 194.33 18.432 194.33 19.392C194.33 20.352 194.106 21.056 193.658 21.504ZM181.562 34.656C181.562 35.36 181.626 36.16 181.754 37.056C181.882 37.888 182.298 38.496 183.002 38.88C183.77 39.328 184.698 39.392 185.786 39.072C186.938 38.752 187.994 38.208 188.954 37.44C189.85 36.736 190.426 35.968 190.682 35.136C191.002 34.24 191.002 33.056 190.682 31.584C190.362 30.112 190.01 28.576 189.626 26.976C189.242 25.376 188.986 23.936 188.858 22.656C188.09 23.04 187.258 23.584 186.362 24.288C185.53 24.992 184.762 25.888 184.058 26.976C183.354 28 182.746 29.152 182.234 30.432C181.786 31.712 181.562 33.12 181.562 34.656ZM226.189 21.504C226.701 22.208 227.181 23.104 227.629 24.192C228.141 25.216 228.525 26.272 228.781 27.36C229.165 29.088 229.581 30.976 230.029 33.024C230.541 35.008 231.021 37.088 231.469 39.264C231.981 41.44 232.429 43.648 232.813 45.888C233.261 48.128 233.645 50.272 233.965 52.32C234.349 55.136 234.125 57.824 233.293 60.384C232.525 63.008 231.213 65.344 229.357 67.392C227.501 69.44 225.197 71.072 222.445 72.288C219.693 73.504 216.589 74.176 213.133 74.304C212.365 74.24 211.565 73.856 210.733 73.152C209.901 72.512 209.485 71.84 209.485 71.136C209.421 70.432 209.741 69.856 210.445 69.408C211.213 69.024 211.981 68.768 212.749 68.64C214.093 68.512 215.469 68.224 216.877 67.776C218.349 67.392 219.725 66.816 221.005 66.048C222.285 65.28 223.437 64.352 224.461 63.264C225.549 62.176 226.381 60.896 226.957 59.424C227.405 58.272 227.629 56.864 227.629 55.2C227.629 53.472 227.501 51.776 227.245 50.112C227.053 48.448 226.765 46.88 226.381 45.408C226.061 43.872 225.773 42.72 225.517 41.952C225.069 42.4 224.493 42.88 223.789 43.392C223.149 43.904 222.413 44.384 221.581 44.832C220.749 45.28 219.821 45.632 218.797 45.888C217.837 46.144 216.845 46.24 215.821 46.176C214.733 46.112 213.709 45.728 212.749 45.024C211.853 44.32 211.053 43.424 210.349 42.336C209.645 41.184 209.069 39.872 208.621 38.4C208.237 36.928 208.045 35.392 208.045 33.792C208.173 29.952 209.133 26.56 210.925 23.616C212.781 20.608 215.725 18.272 219.757 16.608C220.077 16.544 220.493 16.48 221.005 16.416C221.581 16.352 222.157 16.352 222.733 16.416C223.309 16.416 223.853 16.48 224.365 16.608C224.941 16.736 225.421 16.928 225.805 17.184C226.509 17.696 226.861 18.432 226.861 19.392C226.861 20.352 226.637 21.056 226.189 21.504ZM214.093 34.656C214.093 35.36 214.157 36.16 214.285 37.056C214.413 37.888 214.829 38.496 215.533 38.88C216.301 39.328 217.229 39.392 218.317 39.072C219.469 38.752 220.525 38.208 221.485 37.44C222.381 36.736 222.957 35.968 223.213 35.136C223.533 34.24 223.533 33.056 223.213 31.584C222.893 30.112 222.541 28.576 222.157 26.976C221.773 25.376 221.517 23.936 221.389 22.656C220.621 23.04 219.789 23.584 218.893 24.288C218.061 24.992 217.293 25.888 216.589 26.976C215.885 28 215.277 29.152 214.765 30.432C214.317 31.712 214.093 33.12 214.093 34.656Z" fill="black"/>
<path d="M25.256 58.464L27.2478 58.6451L27.2537 58.5797L27.2554 58.514L25.256 58.464ZM24.296 60.384L22.8818 58.9698L22.8446 59.007L22.8094 59.0461L24.296 60.384ZM22.376 61.248L22.5571 59.2562L22.5253 59.2533L22.4934 59.2515L22.376 61.248ZM19.88 60L18.28 61.2L18.28 61.2L19.88 60ZM18.824 50.496L16.8263 50.5911L16.8264 50.5934L18.824 50.496ZM18.344 42.24L20.3394 42.104L20.1913 39.9323L18.0399 40.2633L18.344 42.24ZM16.04 42.048L15.1456 43.8369L15.2484 43.8883L15.3565 43.9276L16.04 42.048ZM14.696 40.608L16.553 39.8652L16.5492 39.8558L16.5454 39.8465L14.696 40.608ZM14.888 37.728L16.5324 38.8664L16.5324 38.8664L14.888 37.728ZM17.672 35.328L18.701 37.043L19.8304 36.3654L19.654 35.0602L17.672 35.328ZM16.712 28.32L14.7242 28.5409L14.7273 28.568L14.731 28.5951L16.712 28.32ZM15.848 21.6L17.8267 21.309L17.8239 21.2901L17.8208 21.2712L15.848 21.6ZM15.944 20.544L17.801 21.2868L17.801 21.2868L15.944 20.544ZM16.424 19.68L18.024 20.88L18.0859 20.7975L18.139 20.709L16.424 19.68ZM17.48 18.816L16.762 16.9493L16.6719 16.984L16.5856 17.0271L17.48 18.816ZM20.264 19.584L19.0028 21.1362L19.0257 21.1548L19.0491 21.1727L20.264 19.584ZM22.472 22.752L24.4475 22.4401L24.4265 22.3067L24.3877 22.1773L22.472 22.752ZM23.048 26.976L21.0622 27.2143L21.0677 27.2597L21.0752 27.3048L23.048 26.976ZM23.72 32.064L21.7306 32.2698L22.059 35.4444L24.7727 33.7645L23.72 32.064ZM27.464 29.376L26.2247 27.8062L26.204 27.8226L26.1836 27.8396L27.464 29.376ZM30.536 26.304L28.9921 25.0326L28.9692 25.0604L28.9473 25.0891L30.536 26.304ZM32.552 22.944L34.416 23.6689L34.4225 23.6522L34.4287 23.6354L32.552 22.944ZM32.936 19.2L30.9497 19.4337L30.9534 19.4652L30.9581 19.4967L32.936 19.2ZM31.496 16.32L30.0304 17.6809L30.0556 17.708L30.0818 17.7342L31.496 16.32ZM27.56 14.88L27.4801 16.8784L27.4886 16.8787L27.56 14.88ZM22.76 15.264L22.3678 13.3028L22.3599 13.3044L22.3521 13.306L22.76 15.264ZM18.152 16.512L17.5195 14.6146L17.5072 14.6187L17.495 14.623L18.152 16.512ZM13.736 18.336L12.8731 16.5317L12.8573 16.5393L12.8416 16.5471L13.736 18.336ZM9.608 20.448L8.67999 18.6763L8.64753 18.6933L8.61572 18.7115L9.608 20.448ZM6.92 21.12L6.61589 23.0967L6.69633 23.1091L6.7775 23.1149L6.92 21.12ZM5.288 20.16L3.46416 20.9807L3.4809 21.0179L3.49914 21.0544L5.288 20.16ZM5.384 16.704L3.73592 15.5709L3.71116 15.6069L3.688 15.644L5.384 16.704ZM8.552 13.824L7.54993 12.0931L7.51363 12.1142L7.47825 12.1367L8.552 13.824ZM12.872 11.712L13.6513 13.5539L13.6678 13.5469L13.6843 13.5396L12.872 11.712ZM18.248 9.792L18.7799 11.72L18.8013 11.7141L18.8227 11.7077L18.248 9.792ZM24.008 8.64L24.207 10.6301L24.2355 10.6272L24.2639 10.6236L24.008 8.64ZM29.672 8.736L29.3204 10.7049L29.3547 10.711L29.3892 10.7159L29.672 8.736ZM34.472 10.56L33.3453 12.2125L33.388 12.2415L33.4321 12.2684L34.472 10.56ZM38.024 14.592L39.9 13.8987L39.8619 13.7957L39.8129 13.6976L38.024 14.592ZM38.888 22.752L36.9288 22.3501L36.9247 22.3699L36.9211 22.3897L38.888 22.752ZM36.008 29.472L34.3839 28.3047L34.377 28.3145L36.008 29.472ZM30.728 34.944L31.9593 36.5201L31.9657 36.515L30.728 34.944ZM24.488 39.264L23.4514 37.5536L22.3811 38.2022L22.4965 39.4484L24.488 39.264ZM25.16 49.536L27.1586 49.4606L25.16 49.536ZM23.2642 58.2829C23.2489 58.4512 23.1801 58.6714 22.8818 58.9698L25.7102 61.7982C26.5639 60.9446 27.1351 59.8848 27.2478 58.6451L23.2642 58.2829ZM22.8094 59.0461C22.6661 59.2053 22.5794 59.2489 22.5633 59.2562C22.5554 59.2597 22.5564 59.2583 22.5632 59.2572C22.5699 59.2561 22.5694 59.2573 22.5571 59.2562L22.1949 63.2398C23.6657 63.3735 24.8878 62.7162 25.7826 61.7219L22.8094 59.0461ZM22.4934 59.2515C21.9038 59.2168 21.6529 59.0305 21.48 58.8L18.28 61.2C19.2591 62.5055 20.6722 63.1512 22.2586 63.2445L22.4934 59.2515ZM21.48 58.8C21.2505 58.494 21.1219 58.2702 21.0558 58.1233C20.9875 57.9714 21.016 57.9687 21.016 58.08H17.016C17.016 59.2654 17.6404 60.3472 18.28 61.2L21.48 58.8ZM21.016 58.08C21.016 55.613 20.9511 53.0525 20.8216 50.3986L16.8264 50.5934C16.9529 53.1875 17.016 55.683 17.016 58.08H21.016ZM20.8217 50.4009C20.6931 47.6986 20.5323 44.9329 20.3394 42.104L16.3486 42.376C16.5397 45.1791 16.6989 47.9174 16.8263 50.5911L20.8217 50.4009ZM18.0399 40.2633C17.4982 40.3466 17.0742 40.2959 16.7235 40.1684L15.3565 43.9276C16.4138 44.3121 17.5258 44.3894 18.6481 44.2167L18.0399 40.2633ZM16.9344 40.2591C16.7143 40.1491 16.6196 40.0318 16.553 39.8652L12.839 41.3508C13.2844 42.4642 14.0857 43.3069 15.1456 43.8369L16.9344 40.2591ZM16.5454 39.8465C16.3065 39.2665 16.4104 39.0426 16.5324 38.8664L13.2436 36.5896C12.2136 38.0774 12.1895 39.7735 12.8466 41.3695L16.5454 39.8465ZM16.5324 38.8664C16.8885 38.352 17.5587 37.7283 18.701 37.043L16.643 33.613C15.2253 34.4637 14.0395 35.44 13.2436 36.5896L16.5324 38.8664ZM19.654 35.0602C19.3337 32.6898 19.0133 30.3514 18.693 28.0449L14.731 28.5951C15.0507 30.8966 15.3703 33.2302 15.69 35.5958L19.654 35.0602ZM18.6998 28.0991C18.4413 25.773 18.1503 23.5095 17.8267 21.309L13.8693 21.891C14.1857 24.0425 14.4707 26.259 14.7242 28.5409L18.6998 28.0991ZM17.8208 21.2712C17.8141 21.2308 17.8167 21.2188 17.8158 21.2291C17.8153 21.2339 17.8142 21.2423 17.8116 21.2532C17.809 21.2643 17.8054 21.2757 17.801 21.2868L14.087 19.8012C13.8061 20.5035 13.759 21.2316 13.8752 21.9288L17.8208 21.2712ZM17.801 21.2868C17.8687 21.1173 17.9451 20.9852 18.024 20.88L14.824 18.48C14.5189 18.8868 14.2753 19.3307 14.087 19.8012L17.801 21.2868ZM18.139 20.709C18.0938 20.7844 18.063 20.8009 18.0985 20.7719C18.1348 20.7422 18.2186 20.6828 18.3744 20.6049L16.5856 17.0271C15.9015 17.3692 15.175 17.8743 14.709 18.651L18.139 20.709ZM18.198 20.6827C18.2017 20.6813 18.2018 20.6815 18.1993 20.682C18.1982 20.6822 18.1971 20.6824 18.1961 20.6825C18.195 20.6827 18.1945 20.6827 18.1947 20.6827C18.1947 20.6827 18.1996 20.6825 18.2106 20.6838C18.2217 20.6852 18.2407 20.6884 18.2681 20.696C18.3864 20.7286 18.6307 20.8339 19.0028 21.1362L21.5252 18.0318C20.2374 16.9854 18.5518 16.2609 16.762 16.9493L18.198 20.6827ZM19.0491 21.1727C19.8115 21.7557 20.2965 22.4607 20.5563 23.3267L24.3877 22.1773C23.8795 20.4833 22.8925 19.0763 21.4789 17.9953L19.0491 21.1727ZM20.4965 23.0639C20.6836 24.2493 20.8724 25.6319 21.0622 27.2143L25.0338 26.7377C24.8396 25.1201 24.6444 23.6867 24.4475 22.4401L20.4965 23.0639ZM21.0752 27.3048C21.3232 28.7929 21.5421 30.4472 21.7306 32.2698L25.7094 31.8582C25.5139 29.9688 25.2848 28.2311 25.0208 26.6472L21.0752 27.3048ZM24.7727 33.7645C26.1921 32.8859 27.5167 31.9355 28.7444 30.9124L26.1836 27.8396C25.1073 28.7365 23.9359 29.5781 22.6673 30.3635L24.7727 33.7645ZM28.7033 30.9458C30.0333 29.8958 31.1793 28.7553 32.1247 27.5189L28.9473 25.0891C28.2287 26.0287 27.3267 26.9362 26.2247 27.8062L28.7033 30.9458ZM32.0799 27.5754C33.0923 26.346 33.881 25.0445 34.416 23.6689L30.688 22.2191C30.327 23.1475 29.7717 24.086 28.9921 25.0326L32.0799 27.5754ZM34.4287 23.6354C34.9928 22.1042 35.1558 20.5164 34.9139 18.9033L30.9581 19.4967C31.1002 20.4436 31.0072 21.3518 30.6753 22.2526L34.4287 23.6354ZM34.9223 18.9663C34.7377 17.3976 34.035 16.0306 32.9102 14.9058L30.0818 17.7342C30.621 18.2734 30.8783 18.8264 30.9497 19.4337L34.9223 18.9663ZM32.9616 14.9591C31.6288 13.5238 29.7073 12.9554 27.6314 12.8813L27.4886 16.8787C28.9967 16.9326 29.6992 17.3242 30.0304 17.6809L32.9616 14.9591ZM27.6399 12.8816C25.8786 12.8111 24.1202 12.9524 22.3678 13.3028L23.1522 17.2252C24.5998 16.9356 26.0414 16.8209 27.4801 16.8784L27.6399 12.8816ZM22.3521 13.306C20.7378 13.6424 19.1268 14.0789 17.5195 14.6146L18.7845 18.4094C20.2492 17.9211 21.7102 17.5256 23.1679 17.222L22.3521 13.306ZM17.495 14.623C15.9496 15.1605 14.409 15.7972 12.8731 16.5317L14.5989 20.1403C16.007 19.4668 17.4104 18.8875 18.809 18.401L17.495 14.623ZM12.8416 16.5471C11.4227 17.2566 10.0355 17.9663 8.67999 18.6763L10.536 22.2197C11.8685 21.5217 13.2333 20.8234 14.6304 20.1249L12.8416 16.5471ZM8.61572 18.7115C8.01127 19.0569 7.50647 19.1568 7.0625 19.1251L6.7775 23.1149C8.12553 23.2112 9.41273 22.8631 10.6003 22.1845L8.61572 18.7115ZM7.22411 19.1433C7.10615 19.1251 7.02333 19.1039 6.96917 19.0863C6.91525 19.0687 6.89665 19.057 6.90204 19.0601C6.90873 19.0641 6.93798 19.0826 6.97567 19.1218C7.01439 19.162 7.04986 19.2116 7.07686 19.2656L3.49914 21.0544C4.16434 22.3848 5.46121 22.9191 6.61589 23.0967L7.22411 19.1433ZM7.11184 19.3393C6.75826 18.5535 6.85574 18.1228 7.08 17.764L3.688 15.644C2.63226 17.3332 2.66574 19.2065 3.46416 20.9807L7.11184 19.3393ZM7.03208 17.8371C7.54124 17.0965 8.37107 16.3098 9.62575 15.5113L7.47825 12.1367C5.91693 13.1302 4.63476 14.2635 3.73592 15.5709L7.03208 17.8371ZM9.55407 15.5549C10.6813 14.9023 12.0434 14.2342 13.6513 13.5539L12.0927 9.87006C10.3726 10.5978 8.85472 11.3377 7.54993 12.0931L9.55407 15.5549ZM13.6843 13.5396C15.3198 12.8127 17.018 12.206 18.7799 11.72L17.7161 7.86401C15.766 8.40197 13.8802 9.07527 12.0597 9.88438L13.6843 13.5396ZM18.8227 11.7077C20.6249 11.167 22.4192 10.8089 24.207 10.6301L23.809 6.64992C21.7568 6.85514 19.7111 7.265 17.6733 7.87635L18.8227 11.7077ZM24.2639 10.6236C26.0657 10.3911 27.7478 10.424 29.3204 10.7049L30.0236 6.76714C28.0122 6.40797 25.9183 6.37693 23.7521 6.65644L24.2639 10.6236ZM29.3892 10.7159C30.8978 10.9314 32.2055 11.4353 33.3453 12.2125L35.5987 8.90754C33.9225 7.76469 32.0302 7.05257 29.9548 6.7561L29.3892 10.7159ZM33.4321 12.2684C34.5335 12.9388 35.4795 13.975 36.2351 15.4864L39.8129 13.6976C38.7765 11.6249 37.3545 9.97316 35.5119 8.8516L33.4321 12.2684ZM36.148 15.2853C37.1366 17.9603 37.3501 20.2961 36.9288 22.3501L40.8472 23.1539C41.4499 20.2159 41.0874 17.1117 39.9 13.8987L36.148 15.2853ZM36.9211 22.3897C36.5277 24.5254 35.6872 26.4915 34.384 28.3047L37.632 30.6393C39.2728 28.3565 40.3523 25.8426 40.8549 23.1143L36.9211 22.3897ZM34.377 28.3145C33.0906 30.1272 31.4677 31.815 29.4903 33.373L31.9657 36.515C34.2123 34.745 36.1094 32.7848 37.639 30.6295L34.377 28.3145ZM29.4967 33.368C27.5077 34.9219 25.4925 36.3166 23.4514 37.5536L25.5246 40.9744C27.7075 39.6514 29.8523 38.1661 31.9593 36.52L29.4967 33.368ZM22.4965 39.4484C22.8132 42.869 23.0348 46.2566 23.1614 49.6114L27.1586 49.4606C27.0292 46.0314 26.8028 42.571 26.4795 39.0796L22.4965 39.4484ZM23.1614 49.6114C23.2883 52.9742 23.3193 55.9067 23.2566 58.414L27.2554 58.514C27.3207 55.9013 27.2877 52.8818 27.1586 49.4606L23.1614 49.6114ZM67.6723 14.496L66.8961 16.3393L66.9395 16.3575L66.9837 16.3737L67.6723 14.496ZM72.4723 17.664L70.9924 19.0093L71.0087 19.0273L71.0255 19.045L72.4723 17.664ZM75.5443 22.464L73.6827 23.1953L73.6873 23.207L73.6921 23.2186L75.5443 22.464ZM76.6963 27.84L74.6974 27.9089L74.6986 27.9433L74.701 27.9776L76.6963 27.84ZM76.1203 33.024L77.9818 33.7553L78.0054 33.6951L78.0251 33.6335L76.1203 33.024ZM73.4323 38.304L75.1247 39.3696L75.1247 39.3696L73.4323 38.304ZM69.6883 42.912L71.0692 44.3587L71.0692 44.3587L69.6883 42.912ZM52.3123 45.6L51.1892 47.255L51.1892 47.255L52.3123 45.6ZM48.0883 40.896L46.3235 41.8372L46.3235 41.8372L48.0883 40.896ZM46.0723 34.368L44.0832 34.5774L44.086 34.6032L44.0893 34.6289L46.0723 34.368ZM46.2643 27.072L48.2398 27.3839L48.2421 27.3694L48.2441 27.3548L46.2643 27.072ZM47.5123 21.888L45.6368 21.1934L45.6293 21.2135L45.6223 21.2338L47.5123 21.888ZM49.9123 17.376L51.5123 18.576L51.5262 18.5574L51.5397 18.5385L49.9123 17.376ZM53.1763 14.112L52.0863 12.4351L52.0664 12.448L52.0469 12.4614L53.1763 14.112ZM60.8563 13.44L60.3068 15.363L60.3497 15.3753L60.393 15.3856L60.8563 13.44ZM64.6003 14.88L63.629 16.6283L64.8937 17.3309L65.9568 16.3496L64.6003 14.88ZM64.0243 21.504L62.9505 23.1913L63.0375 23.2467L63.1298 23.2929L64.0243 21.504ZM61.5283 19.776L60.2267 21.2945L60.2843 21.3439L60.3455 21.3888L61.5283 19.776ZM56.8243 19.68L55.4728 18.2057L55.4408 18.2351L55.41 18.2658L56.8243 19.68ZM54.9043 22.176L53.1893 21.147L53.1783 21.1652L53.1678 21.1837L54.9043 22.176ZM53.5603 24.96L55.4172 25.7028L55.4172 25.7028L53.5603 24.96ZM52.7923 27.264L50.8399 26.8301L50.8353 26.8509L50.8311 26.8718L52.7923 27.264ZM52.4083 30.72L50.4105 30.6249L50.4105 30.6249L52.4083 30.72ZM52.6963 34.752L50.7316 35.1262L50.7333 35.1352L50.7351 35.1442L52.6963 34.752ZM54.1363 38.304L52.4571 39.3905L52.4947 39.4486L52.5363 39.504L54.1363 38.304ZM57.4963 40.512L56.9139 42.4253L56.9303 42.4303L56.9468 42.435L57.4963 40.512ZM60.6643 40.512L61.0763 42.4691L61.125 42.4588L61.1732 42.4461L60.6643 40.512ZM64.2163 38.88L63.1483 37.189L63.1274 37.2022L63.1069 37.2159L64.2163 38.88ZM67.5763 35.808L66.0524 34.5127L66.0331 34.5354L66.0145 34.5586L67.5763 35.808ZM70.0723 31.392L71.9622 32.0462L71.963 32.044L70.0723 31.392ZM70.0723 25.632L68.1469 26.1735L68.1572 26.21L68.1688 26.246L70.0723 25.632ZM66.4243 21.216L67.2937 19.4149L66.2263 18.8996L65.2618 19.5885L66.4243 21.216ZM66.9837 16.3737C68.6241 16.9752 69.9454 17.8577 70.9924 19.0093L73.9521 16.3187C72.4391 14.6543 70.5604 13.4248 68.3608 12.6182L66.9837 16.3737ZM71.0255 19.045C72.1925 20.2675 73.0746 21.6474 73.6827 23.1953L77.4058 21.7327C76.6059 19.6966 75.44 17.8765 73.919 16.283L71.0255 19.045ZM73.6921 23.2186C74.3076 24.7295 74.6416 26.2895 74.6974 27.9089L78.6951 27.7711C78.6229 25.6785 78.1889 23.6545 77.3964 21.7094L73.6921 23.2186ZM74.701 27.9776C74.8134 29.6082 74.6424 31.0801 74.2154 32.4144L78.0251 33.6335C78.6221 31.7679 78.8351 29.7838 78.6915 27.7024L74.701 27.9776ZM74.2587 32.2927C73.6032 33.9614 72.7651 35.6099 71.7398 37.2384L75.1247 39.3696C76.2754 37.5421 77.2293 35.6706 77.9818 33.7553L74.2587 32.2927ZM71.7398 37.2384C70.7352 38.8338 69.5905 40.2404 68.3073 41.4653L71.0692 44.3587C72.602 42.8955 73.9533 41.2302 75.1247 39.3696L71.7398 37.2384ZM68.3073 41.4653C67.06 42.6559 65.6426 43.6207 64.046 44.362L65.7305 47.99C67.7179 47.0673 69.5005 45.8561 71.0692 44.3587L68.3073 41.4653ZM64.046 44.362C62.5436 45.0595 60.8511 45.424 58.9363 45.424V49.424C61.3734 49.424 63.6489 48.9565 65.7305 47.99L64.046 44.362ZM58.9363 45.424C56.6268 45.424 54.8313 44.8924 53.4353 43.945L51.1892 47.255C53.3772 48.7396 55.9977 49.424 58.9363 49.424V45.424ZM53.4353 43.945C51.9133 42.9123 50.7249 41.5898 49.853 39.9548L46.3235 41.8372C47.4996 44.0422 49.1272 45.8557 51.1892 47.255L53.4353 43.945ZM49.853 39.9548C48.9554 38.2718 48.3478 36.3311 48.0552 34.1071L44.0893 34.6289C44.4367 37.2689 45.1731 39.6802 46.3235 41.8372L49.853 39.9548ZM48.0613 34.1586C47.8237 31.9014 47.8828 29.6447 48.2398 27.3839L44.2887 26.7601C43.8777 29.3633 43.8088 31.9706 44.0832 34.5774L48.0613 34.1586ZM48.2441 27.3548C48.4826 25.6857 48.8691 24.0822 49.4022 22.5422L45.6223 21.2338C45.0034 23.0217 44.5579 24.8743 44.2844 26.7892L48.2441 27.3548ZM49.3877 22.5826C49.9707 21.0087 50.684 19.6804 51.5123 18.576L48.3122 16.176C47.2205 17.6316 46.3338 19.3113 45.6368 21.1934L49.3877 22.5826ZM51.5397 18.5385C52.3799 17.3622 53.3049 16.4473 54.3056 15.7626L52.0469 12.4614C50.6156 13.4407 49.3646 14.7018 48.2848 16.2135L51.5397 18.5385ZM54.2662 15.7889C55.2058 15.1782 56.2636 14.864 57.4963 14.864V10.864C55.5289 10.864 53.7067 11.3818 52.0863 12.4351L54.2662 15.7889ZM57.4963 14.864C58.133 14.864 59.0535 15.005 60.3068 15.363L61.4057 11.517C59.971 11.107 58.6515 10.864 57.4963 10.864V14.864ZM60.393 15.3856C61.5681 15.6654 62.6441 16.0811 63.629 16.6283L65.5715 13.1317C64.2524 12.3988 62.8324 11.8546 61.3195 11.4944L60.393 15.3856ZM65.9568 16.3496C66.0974 16.2198 66.1829 16.1997 66.2403 16.1926C66.3204 16.1825 66.523 16.1822 66.8961 16.3393L68.4484 12.6527C67.6055 12.2978 66.6881 12.1054 65.7442 12.2234C64.7776 12.3443 63.9351 12.7722 63.2437 13.4104L65.9568 16.3496ZM65.098 19.8167C64.4431 19.3999 63.6491 18.8511 62.711 18.1632L60.3455 21.3888C61.3274 22.1089 62.1974 22.7121 62.9505 23.1913L65.098 19.8167ZM62.8298 18.2575C61.7976 17.3727 60.5409 16.624 59.1283 16.624V20.624C59.1131 20.624 59.1925 20.6199 59.3908 20.715C59.5918 20.8115 59.8704 20.9891 60.2267 21.2945L62.8298 18.2575ZM59.1283 16.624C57.7045 16.624 56.4764 17.2858 55.4728 18.2057L58.1757 21.1543C58.7081 20.6662 59.016 20.624 59.1283 20.624V16.624ZM55.41 18.2658C54.5771 19.0987 53.8391 20.0639 53.1893 21.147L56.6192 23.205C57.1214 22.3681 57.6634 21.6693 58.2385 21.0942L55.41 18.2658ZM53.1678 21.1837C52.6098 22.1602 52.1216 23.1715 51.7033 24.2172L55.4172 25.7028C55.7669 24.8285 56.1747 23.9838 56.6407 23.1683L53.1678 21.1837ZM51.7033 24.2172C51.3042 25.2149 51.0024 26.0988 50.8399 26.8301L54.7446 27.6979C54.8381 27.2772 55.0483 26.6251 55.4172 25.7028L51.7033 24.2172ZM50.8311 26.8718C50.6138 27.9583 50.4776 29.2152 50.4105 30.6249L54.406 30.8151C54.4669 29.5368 54.5867 28.4897 54.7534 27.6562L50.8311 26.8718ZM50.4105 30.6249C50.3389 32.1287 50.4466 33.6302 50.7316 35.1262L54.6609 34.3778C54.4339 33.1858 54.3496 31.9993 54.406 30.8151L50.4105 30.6249ZM50.7351 35.1442C51.0401 36.6695 51.6152 38.0893 52.4571 39.3905L55.8154 37.2175C55.2493 36.3427 54.8644 35.3945 54.6574 34.3598L50.7351 35.1442ZM52.5363 39.504C53.6073 40.932 55.1197 41.8793 56.9139 42.4253L58.0786 38.5987C56.9288 38.2487 56.2012 37.724 55.7363 37.104L52.5363 39.504ZM56.9468 42.435C58.2426 42.8053 59.6437 42.7707 61.0763 42.4691L60.2522 38.5549C59.2528 38.7653 58.5419 38.7307 58.0457 38.589L56.9468 42.435ZM61.1732 42.4461C62.6234 42.0645 64.0083 41.4223 65.3257 40.5441L63.1069 37.2159C62.1202 37.8737 61.1371 38.3195 60.1553 38.5778L61.1732 42.4461ZM65.2842 40.571C66.7125 39.6689 67.9942 38.4871 69.138 37.0574L66.0145 34.5586C65.1103 35.6889 64.152 36.5551 63.1483 37.189L65.2842 40.571ZM69.1001 37.1033C70.3566 35.6251 71.309 33.9333 71.9622 32.0462L68.1823 30.7378C67.6835 32.1787 66.9719 33.4309 66.0524 34.5127L69.1001 37.1033ZM71.963 32.044C72.7532 29.7523 72.7399 27.387 71.9757 25.018L68.1688 26.246C68.6846 27.8449 68.6713 29.3197 68.1815 30.74L71.963 32.044ZM71.9976 25.0905C71.2721 22.5111 69.6846 20.5691 67.2937 19.4149L65.5548 23.0171C66.8759 23.6549 67.7204 24.6569 68.1469 26.1735L71.9976 25.0905ZM65.2618 19.5885C65.1653 19.6574 65.1044 19.6837 65.0796 19.6925C65.058 19.7002 65.0612 19.696 65.0803 19.696V23.696C66.0325 23.696 66.8783 23.3495 67.5867 22.8435L65.2618 19.5885ZM65.0803 19.696C64.9477 19.696 64.8709 19.6862 64.838 19.6803C64.8041 19.6741 64.8411 19.6763 64.9187 19.7151L63.1298 23.2929C63.7768 23.6164 64.4798 23.696 65.0803 23.696V19.696ZM110.805 16.608L110.32 14.6677L110.287 14.6758L110.255 14.685L110.805 16.608ZM111.957 16.512V18.512H112.081L112.205 18.4966L111.957 16.512ZM113.397 16.608L112.847 18.531L112.996 18.5734L113.149 18.5926L113.397 16.608ZM114.645 17.088L113.395 18.6497L113.561 18.7821L113.75 18.8769L114.645 17.088ZM115.317 17.856L117.29 17.5272L117.284 17.4954L117.278 17.4638L115.317 17.856ZM114.933 19.968L113.218 18.939L113.201 18.9676L113.184 18.9967L114.933 19.968ZM113.109 21.504L113.965 23.3115L113.984 23.3024L114.003 23.2929L113.109 21.504ZM105.525 25.44L106.47 27.2023L106.487 27.1935L106.503 27.1843L105.525 25.44ZM98.8048 29.28L97.75 27.5807L95.1091 29.2199L97.6954 30.9441L98.8048 29.28ZM102.741 31.872L101.648 33.5472L101.664 33.5578L101.681 33.568L102.741 31.872ZM107.445 34.944L106.32 36.5979L106.343 36.6135L106.367 36.6285L107.445 34.944ZM112.245 38.304L111.035 39.8963L111.055 39.912L111.076 39.9271L112.245 38.304ZM116.757 41.76L118.052 40.2361L118.038 40.224L118.023 40.2121L116.757 41.76ZM117.429 44.736L115.963 43.3751L115.936 43.4042L115.91 43.4344L117.429 44.736ZM115.509 45.696L115.09 43.7404L115.074 43.7437L115.059 43.7472L115.509 45.696ZM113.109 45.408L112.214 47.1969L112.214 47.1969L113.109 45.408ZM108.501 42.912L107.453 44.6153L107.477 44.6302L107.501 44.6444L108.501 42.912ZM103.413 39.84L102.347 41.5325L102.37 41.5468L102.393 41.5606L103.413 39.84ZM98.3248 36.672L97.2001 38.3259L97.2378 38.3515L97.2766 38.3753L98.3248 36.672ZM93.9088 33.696L95.0181 32.0319L91.4323 29.6414L91.9217 33.9231L93.9088 33.696ZM94.5807 40.416L92.5881 40.5868L92.5905 40.615L92.5937 40.6431L94.5807 40.416ZM95.2528 47.136L93.2601 47.3068L93.279 47.5273L93.3456 47.7383L95.2528 47.136ZM95.1568 50.112L93.4292 49.1043L93.4292 49.1043L95.1568 50.112ZM92.9488 51.168L92.6012 53.1376L92.7118 53.1571L92.824 53.1641L92.9488 51.168ZM90.5488 49.92L88.9313 51.0963L88.9583 51.1335L88.987 51.1694L90.5488 49.92ZM89.3968 47.232L87.4178 47.5216L87.4303 47.6065L87.4499 47.6901L89.3968 47.232ZM88.0528 37.92L86.0682 38.1681L86.0704 38.1855L86.0729 38.2028L88.0528 37.92ZM85.0768 15.552L83.0917 15.7958L83.0938 15.8129L83.0962 15.83L85.0768 15.552ZM83.8288 5.856L85.8105 5.58577L85.8086 5.57316L83.8288 5.856ZM83.5408 2.976H81.5408V3.03843L81.5446 3.10075L83.5408 2.976ZM84.5968 0.863995L83.854 -0.99296L83.8111 -0.975826L83.7691 -0.956735L84.5968 0.863995ZM87.5728 1.536L86.3116 3.08822L86.3417 3.1127L86.3727 3.136L87.5728 1.536ZM89.8768 5.088L91.8472 4.74532L91.8236 4.60962L91.7816 4.47845L89.8768 5.088ZM91.4128 14.688L93.3912 14.3949L93.3912 14.3949L91.4128 14.688ZM92.9488 25.632L90.9663 25.8963L91.3685 28.9126L93.9777 27.347L92.9488 25.632ZM97.3648 23.136L98.313 24.8969L98.3245 24.8907L98.336 24.8843L97.3648 23.136ZM102.453 20.448L103.347 22.2369L103.36 22.2303L103.373 22.2235L102.453 20.448ZM107.253 18.048L108.116 19.8523L108.116 19.8523L107.253 18.048ZM111.29 18.5483C111.277 18.5514 111.322 18.5398 111.451 18.5291C111.573 18.5189 111.739 18.512 111.957 18.512V14.512C111.404 14.512 110.82 14.5425 110.32 14.6677L111.29 18.5483ZM112.205 18.4966C112.478 18.4624 112.685 18.4846 112.847 18.531L113.946 14.685C113.213 14.4754 112.459 14.4336 111.709 14.5274L112.205 18.4966ZM113.149 18.5926C113.388 18.6225 113.43 18.6772 113.395 18.6497L115.894 15.5263C115.22 14.9868 114.429 14.7215 113.645 14.6234L113.149 18.5926ZM113.75 18.8769C113.769 18.886 113.693 18.8523 113.596 18.741C113.488 18.6175 113.395 18.4459 113.356 18.2482L117.278 17.4638C117.057 16.3582 116.287 15.6728 115.539 15.2991L113.75 18.8769ZM113.344 18.1848C113.397 18.506 113.346 18.7254 113.218 18.939L116.648 20.997C117.288 19.9306 117.492 18.742 117.29 17.5272L113.344 18.1848ZM113.184 18.9967C113.138 19.0809 112.925 19.3596 112.214 19.7151L114.003 23.2929C115.084 22.7524 116.088 22.0071 116.681 20.9393L113.184 18.9967ZM112.253 19.6965C109.775 20.8703 107.206 22.2038 104.546 23.6957L106.503 27.1843C109.092 25.7322 111.579 24.4417 113.965 23.3115L112.253 19.6965ZM104.579 23.6777C101.93 25.099 99.6519 26.4003 97.75 27.5807L99.8595 30.9793C101.67 29.8557 103.871 28.597 106.47 27.2023L104.579 23.6777ZM97.6954 30.9441C98.8542 31.7167 100.172 32.5845 101.648 33.5472L103.833 30.1968C102.366 29.2395 101.059 28.3793 99.9142 27.6159L97.6954 30.9441ZM101.681 33.568C103.194 34.5135 104.74 35.5233 106.32 36.5979L108.569 33.2901C106.95 32.1887 105.36 31.1505 103.801 30.176L101.681 33.568ZM106.367 36.6285C107.919 37.622 109.475 38.711 111.035 39.8963L113.455 36.7117C111.815 35.465 110.171 34.314 108.523 33.2595L106.367 36.6285ZM111.076 39.9271C112.645 41.057 114.117 42.184 115.49 43.3079L118.023 40.2121C116.581 39.032 115.044 37.855 113.413 36.6809L111.076 39.9271ZM115.461 43.2839C115.695 43.482 115.828 43.6326 115.898 43.7299C115.968 43.8262 115.951 43.8354 115.934 43.7605C115.913 43.6687 115.914 43.5466 115.951 43.4329C115.983 43.3336 116.017 43.3166 115.963 43.3751L118.894 46.0969C119.656 45.2771 120.124 44.155 119.836 42.8795C119.584 41.7642 118.826 40.8936 118.052 40.2361L115.461 43.2839ZM115.91 43.4344C115.924 43.4179 115.897 43.4576 115.766 43.5231C115.632 43.5901 115.416 43.6704 115.09 43.7404L115.928 47.6516C117.03 47.4155 118.159 46.957 118.947 46.0376L115.91 43.4344ZM115.059 43.7472C114.683 43.834 114.358 43.7965 114.003 43.6191L112.214 47.1969C113.396 47.7875 114.671 47.942 115.958 47.6448L115.059 43.7472ZM114.003 43.6191C112.637 42.9363 111.137 42.1239 109.5 41.1796L107.501 44.6444C109.193 45.6201 110.764 46.4717 112.214 47.1969L114.003 43.6191ZM109.549 41.2087C107.875 40.1787 106.17 39.1489 104.432 38.1194L102.393 41.5606C104.112 42.5791 105.798 43.5973 107.453 44.6153L109.549 41.2087ZM104.478 38.1475C102.745 37.056 101.043 35.9964 99.3729 34.9687L97.2766 38.3753C98.9345 39.3956 100.625 40.4479 102.347 41.5325L104.478 38.1475ZM99.4494 35.0181C97.8453 33.9274 96.3681 32.9319 95.0181 32.0319L92.7994 35.3601C94.1374 36.2521 95.6042 37.2406 97.2001 38.3259L99.4494 35.0181ZM91.9217 33.9231C92.1756 36.1444 92.3977 38.3656 92.5881 40.5868L96.5734 40.2452C96.3798 37.9864 96.154 35.7276 95.8958 33.4689L91.9217 33.9231ZM92.5937 40.6431C92.8475 42.8644 93.0697 45.0856 93.2601 47.3068L97.2454 46.9652C97.0518 44.7064 96.826 42.4476 96.5678 40.1889L92.5937 40.6431ZM93.3456 47.7383C93.635 48.6549 93.4875 49.0043 93.4292 49.1043L96.8843 51.1197C97.722 49.6837 97.6385 48.0491 97.1599 46.5337L93.3456 47.7383ZM93.4292 49.1043C93.4045 49.1467 93.3901 49.1592 93.3924 49.1571C93.3957 49.1539 93.4023 49.1494 93.4058 49.1477C93.4148 49.1434 93.3315 49.188 93.0735 49.1719L92.824 53.1641C93.59 53.212 94.3867 53.1126 95.1317 52.7563C95.8937 52.3918 96.4774 51.8173 96.8843 51.1197L93.4292 49.1043ZM93.2963 49.1984C92.5189 49.0612 92.2267 48.8159 92.1105 48.6706L88.987 51.1694C89.8948 52.3041 91.2026 52.8908 92.6012 53.1376L93.2963 49.1984ZM92.1662 48.7437C91.8483 48.3065 91.5552 47.6734 91.3436 46.7739L87.4499 47.6901C87.7503 48.9666 88.2252 50.1255 88.9313 51.0963L92.1662 48.7437ZM91.3757 46.9424C90.9921 44.3213 90.5444 41.2197 90.0326 37.6372L86.0729 38.2028C86.5851 41.7883 87.0334 44.8947 87.4178 47.5216L91.3757 46.9424ZM90.0373 37.6719C89.5886 34.0821 89.1079 30.3647 88.5952 26.5197L84.6303 27.0483C85.1416 30.8833 85.6209 34.5899 86.0682 38.1681L90.0373 37.6719ZM88.5952 26.5197C88.0826 22.6754 87.57 18.9268 87.0573 15.274L83.0962 15.83C83.6075 19.4732 84.1189 23.2126 84.6303 27.0483L88.5952 26.5197ZM87.0618 15.3082C86.613 11.6538 86.1959 8.41269 85.8104 5.58577L81.8471 6.12623C82.2296 8.93131 82.6445 12.1542 83.0917 15.7958L87.0618 15.3082ZM85.8086 5.57316C85.6891 4.73599 85.598 3.82919 85.5369 2.85124L81.5446 3.10075C81.6115 4.17081 81.7124 5.18401 81.8489 6.13884L85.8086 5.57316ZM85.5408 2.976C85.5408 2.80963 85.5544 2.69313 85.5692 2.61749C85.584 2.54264 85.5978 2.51806 85.5936 2.52642C85.588 2.53773 85.5678 2.57228 85.527 2.61179C85.486 2.65164 85.4464 2.67469 85.4244 2.68472L83.7691 -0.956735C82.065 -0.182123 81.5408 1.47589 81.5408 2.976H85.5408ZM85.3395 2.72095C85.4338 2.68322 85.6697 2.56673 86.3116 3.08822L88.8339 -0.01623C87.4278 -1.15874 85.6797 -1.72323 83.854 -0.99296L85.3395 2.72095ZM86.3727 3.136C86.9748 3.58754 87.5472 4.37029 87.9719 5.69755L91.7816 4.47845C91.1823 2.60571 90.2187 1.02045 88.7728 -0.0640015L86.3727 3.136ZM87.9063 5.43068C88.415 8.35571 88.9244 11.539 89.4343 14.9811L93.3912 14.3949C92.8771 10.925 92.3625 7.70828 91.8472 4.74532L87.9063 5.43068ZM89.4343 14.9811C89.9448 18.4266 90.4554 22.0649 90.9663 25.8963L94.9312 25.3677C94.4181 21.5191 93.9047 17.8614 93.3912 14.3949L89.4343 14.9811ZM93.9777 27.347C95.2253 26.5985 96.6694 25.7819 98.313 24.8969L96.4166 21.3751C94.7321 22.2821 93.2322 23.1295 91.9198 23.917L93.9777 27.347ZM98.336 24.8843C100.04 23.9375 101.711 23.0551 103.347 22.2369L101.558 18.6591C99.8669 19.5049 98.1452 20.4145 96.3935 21.3877L98.336 24.8843ZM103.373 22.2235C105.086 21.3356 106.666 20.5454 108.116 19.8523L106.39 16.2437C104.895 16.9586 103.276 17.7684 101.532 18.6725L103.373 22.2235ZM108.116 19.8523C109.55 19.1664 110.617 18.7417 111.354 18.531L110.255 14.685C109.201 14.9863 107.9 15.5216 106.39 16.2437L108.116 19.8523ZM146.637 25.44L147.653 27.1627L147.688 27.1417L147.723 27.1191L146.637 25.44ZM138.573 28.896L139.088 30.8285L139.108 30.8232L139.128 30.8174L138.573 28.896ZM129.261 30.048V28.048H127.143L127.264 30.1621L129.261 30.048ZM131.181 35.424L129.662 36.7256L129.678 36.7439L129.694 36.7619L131.181 35.424ZM135.501 37.728L135.208 39.7064L135.23 39.7097L135.253 39.7126L135.501 37.728ZM138.573 37.632L138.225 35.6624L138.215 35.6643L138.204 35.6663L138.573 37.632ZM141.549 36.768L142.337 38.6063L142.366 38.5938L142.395 38.5804L141.549 36.768ZM144.141 35.328L145.25 36.9921L145.25 36.9921L144.141 35.328ZM146.157 33.792L147.485 35.2868L147.485 35.2868L146.157 33.792ZM147.981 32.832L148.373 34.7932L148.465 34.7747L148.555 34.7477L147.981 32.832ZM149.421 32.736L148.678 34.593L148.713 34.6069L148.748 34.6195L149.421 32.736ZM150.381 35.616L152.17 36.5104L152.307 36.2355L152.356 35.932L150.381 35.616ZM145.965 40.896L147.147 42.5088L147.165 42.4962L147.182 42.4832L145.965 40.896ZM139.533 43.584L139.213 41.6098L139.188 41.6137L139.164 41.6183L139.533 43.584ZM133.197 43.296L133.709 41.3626L133.709 41.3626L133.197 43.296ZM127.341 39.936L125.927 41.3502L125.94 41.3636L125.953 41.3766L127.341 39.936ZM123.981 34.752L125.846 34.03L125.846 34.03L123.981 34.752ZM122.541 28.608L124.533 28.4269L124.531 28.4153L122.541 28.608ZM123.021 22.944L121.117 22.332L121.107 22.3631L121.098 22.3946L123.021 22.944ZM125.613 18.24L127.131 19.5416L127.146 19.5242L127.161 19.5065L125.613 18.24ZM135.981 13.248L136.092 15.2449L136.106 15.2441L136.12 15.2431L135.981 13.248ZM143.469 14.784L142.515 16.5417L142.515 16.5417L143.469 14.784ZM148.173 19.872L146.323 20.6335L146.326 20.6408L146.329 20.6481L148.173 19.872ZM148.557 23.04L146.634 22.4906L146.615 22.5552L146.601 22.6209L148.557 23.04ZM135.597 18.912L135.239 16.9443L135.222 16.9474L135.205 16.9508L135.597 18.912ZM133.485 19.584L132.716 17.7378L132.686 17.7501L132.657 17.7633L133.485 19.584ZM131.469 20.832L132.697 22.4107L132.707 22.4023L132.718 22.3937L131.469 20.832ZM129.837 22.464L128.275 21.2146L128.266 21.2253L128.258 21.2361L129.837 22.464ZM129.069 24.48L127.076 24.3139L126.895 26.48H129.069V24.48ZM132.621 24.192L132.338 22.212L132.324 22.2141L132.621 24.192ZM136.461 23.52L136.873 25.4771L136.909 25.4694L136.946 25.4603L136.461 23.52ZM139.917 22.464L139.251 20.578L139.233 20.5845L139.215 20.5913L139.917 22.464ZM142.605 21.216L143.679 22.9033L145.103 21.9965L144.448 20.4399L142.605 21.216ZM139.725 19.008L139.262 20.9536L139.314 20.9661L139.367 20.9757L139.725 19.008ZM145.621 23.7173C143.274 25.101 140.742 26.1876 138.018 26.9746L139.128 30.8174C142.164 29.9404 145.007 28.723 147.653 27.1627L145.621 23.7173ZM138.057 26.9635C135.364 27.6818 132.435 28.048 129.261 28.048V32.048C132.743 32.048 136.022 31.6462 139.088 30.8285L138.057 26.9635ZM127.264 30.1621C127.41 32.7211 128.156 34.9688 129.662 36.7256L132.699 34.1224C131.901 33.1912 131.367 31.8549 131.257 29.9339L127.264 30.1621ZM129.694 36.7619C131.162 38.3931 133.027 39.3833 135.208 39.7064L135.794 35.7496C134.519 35.5607 133.503 35.0149 132.667 34.0861L129.694 36.7619ZM135.253 39.7126C136.484 39.8665 137.716 39.8275 138.941 39.5977L138.204 35.6663C137.382 35.8205 136.566 35.8455 135.749 35.7434L135.253 39.7126ZM138.92 39.6016C140.14 39.3863 141.282 39.0582 142.337 38.6063L140.761 34.9297C140.023 35.2458 139.182 35.4937 138.225 35.6624L138.92 39.6016ZM142.395 38.5804C143.433 38.0958 144.387 37.5676 145.25 36.9921L143.031 33.6639C142.359 34.1124 141.585 34.5442 140.703 34.9556L142.395 38.5804ZM145.25 36.9921C146.081 36.4385 146.828 35.8708 147.485 35.2868L144.828 32.2972C144.333 32.7372 143.737 33.1935 143.031 33.6639L145.25 36.9921ZM147.485 35.2868C147.845 34.9677 148.139 34.8399 148.373 34.7932L147.589 30.8708C146.542 31.0801 145.621 31.5923 144.828 32.2972L147.485 35.2868ZM148.555 34.7477C148.665 34.7147 148.754 34.693 148.823 34.6792C148.893 34.6652 148.935 34.6608 148.954 34.6596C148.973 34.6583 148.957 34.6611 148.912 34.6558C148.868 34.6504 148.784 34.6355 148.678 34.593L150.164 30.879C149.179 30.4853 148.132 30.6987 147.406 30.9163L148.555 34.7477ZM148.748 34.6195C148.7 34.6024 148.615 34.5581 148.535 34.4735C148.457 34.3919 148.435 34.3259 148.435 34.3285C148.439 34.3383 148.461 34.4142 148.465 34.586C148.47 34.7563 148.455 34.9908 148.406 35.3L152.356 35.932C152.507 34.9851 152.535 33.9791 152.23 33.0635C151.89 32.0434 151.161 31.2339 150.093 30.8525L148.748 34.6195ZM148.592 34.7216C147.711 36.4829 146.441 38.0106 144.748 39.3088L147.182 42.4832C149.328 40.8374 151.002 38.8451 152.17 36.5104L148.592 34.7216ZM144.782 39.2832C143.119 40.5028 141.271 41.276 139.213 41.6098L139.853 45.5582C142.53 45.124 144.971 44.1052 147.147 42.5088L144.782 39.2832ZM139.164 41.6183C137.431 41.9432 135.621 41.8687 133.709 41.3626L132.685 45.2294C135.125 45.8753 137.538 45.9928 139.901 45.5497L139.164 41.6183ZM133.709 41.3626C131.883 40.8794 130.228 39.9393 128.728 38.4954L125.953 41.3766C127.91 43.2607 130.158 44.5606 132.685 45.2294L133.709 41.3626ZM128.755 38.5218C127.484 37.251 126.516 35.7603 125.846 34.03L122.116 35.474C122.982 37.7117 124.253 39.677 125.927 41.3502L128.755 38.5218ZM125.846 34.03C125.145 32.219 124.708 30.353 124.533 28.4269L120.549 28.7891C120.758 31.087 121.281 33.317 122.116 35.474L125.846 34.03ZM124.531 28.4153C124.362 26.6633 124.505 25.0282 124.944 23.4934L121.098 22.3946C120.512 24.4438 120.336 26.5847 120.55 28.8006L124.531 28.4153ZM124.925 23.556C125.425 22.001 126.163 20.6711 127.131 19.5416L124.094 16.9384C122.758 18.4969 121.769 20.303 121.117 22.332L124.925 23.556ZM127.161 19.5065C128.129 18.3235 129.35 17.3391 130.853 16.5595L129.012 13.0085C127.06 14.0209 125.401 15.3405 124.065 16.9735L127.161 19.5065ZM130.853 16.5595C132.288 15.8157 134.019 15.3601 136.092 15.2449L135.87 11.2511C133.335 11.3919 131.034 11.9603 129.012 13.0085L130.853 16.5595ZM136.12 15.2431C138.525 15.0754 140.637 15.5222 142.515 16.5417L144.423 13.0263C141.821 11.6138 138.941 11.0366 135.842 11.2528L136.12 15.2431ZM142.515 16.5417C144.387 17.5579 145.617 18.9189 146.323 20.6335L150.022 19.1105C148.936 16.4731 147.031 14.4421 144.423 13.0263L142.515 16.5417ZM146.329 20.6481C146.737 21.6154 146.722 22.1828 146.634 22.4906L150.48 23.5894C150.904 22.1051 150.633 20.5606 150.016 19.0959L146.329 20.6481ZM146.601 22.6209C146.559 22.8154 146.379 23.2243 145.55 23.7609L147.723 27.1191C149.07 26.2477 150.17 25.0566 150.512 23.4591L146.601 22.6209ZM135.205 16.9508C134.406 17.1106 133.574 17.3803 132.716 17.7378L134.254 21.4302C134.932 21.1477 135.508 20.9694 135.989 20.8732L135.205 16.9508ZM132.657 17.7633C131.794 18.1558 130.981 18.661 130.219 19.2703L132.718 22.3937C133.237 21.979 133.768 21.6522 134.312 21.4047L132.657 17.7633ZM130.241 19.2533C129.527 19.8086 128.873 20.4669 128.275 21.2146L131.398 23.7134C131.824 23.1811 132.259 22.7514 132.697 22.4107L130.241 19.2533ZM128.258 21.2361C127.558 22.1359 127.17 23.1821 127.076 24.3139L131.062 24.6461C131.096 24.2419 131.219 23.9441 131.415 23.6919L128.258 21.2361ZM129.069 26.48C130.273 26.48 131.557 26.3739 132.917 26.1699L132.324 22.2141C131.124 22.3941 130.041 22.48 129.069 22.48V26.48ZM132.904 26.1719C134.287 25.9743 135.61 25.7429 136.873 25.4771L136.049 21.5629C134.879 21.8091 133.643 22.0257 132.338 22.2121L132.904 26.1719ZM136.946 25.4603C138.285 25.1255 139.511 24.7521 140.619 24.3367L139.215 20.5913C138.274 20.9439 137.197 21.2745 135.976 21.5797L136.946 25.4603ZM140.582 24.35C141.763 23.9332 142.808 23.4571 143.679 22.9033L141.531 19.5287C140.993 19.8709 140.246 20.2268 139.251 20.578L140.582 24.35ZM144.448 20.4399C143.649 18.5411 142.088 17.4049 140.083 17.0403L139.367 20.9757C140.177 21.1231 140.537 21.4589 140.761 21.9921L144.448 20.4399ZM140.188 17.0624C138.565 16.676 136.909 16.6406 135.239 16.9443L135.955 20.8797C137.1 20.6714 138.196 20.7 139.262 20.9536L140.188 17.0624ZM164.549 46.464L162.559 46.663L162.563 46.7012L162.568 46.7391L164.549 46.464ZM161.669 50.4L161.89 52.3878L161.921 52.3843L161.952 52.3799L161.669 50.4ZM158.789 49.44L157.315 50.7914L157.344 50.8235L157.375 50.8542L158.789 49.44ZM157.445 46.656L155.472 46.9848L155.474 46.9942L155.475 47.0036L157.445 46.656ZM157.637 43.296L155.751 42.6304L155.733 42.6806L155.718 42.7317L157.637 43.296ZM159.749 41.472L159.997 43.4566L160.021 43.4535L160.046 43.4499L159.749 41.472ZM163.013 42.912L161.434 44.1399L161.451 44.1619L161.469 44.1834L163.013 42.912ZM162.568 46.7391C162.687 47.5986 162.517 47.9098 162.455 47.995C162.401 48.0687 162.186 48.3058 161.386 48.4201L161.952 52.3799C163.392 52.1742 164.777 51.5953 165.683 50.357C166.581 49.1302 166.731 47.6334 166.53 46.1889L162.568 46.7391ZM161.448 48.4122C160.853 48.4783 160.509 48.332 160.203 48.0258L157.375 50.8542C158.605 52.084 160.181 52.5777 161.89 52.3878L161.448 48.4122ZM160.263 48.0885C159.832 47.6185 159.545 47.0452 159.415 46.3084L155.475 47.0036C155.729 48.4428 156.338 49.7255 157.315 50.7914L160.263 48.0885ZM159.418 46.3272C159.274 45.464 159.324 44.6497 159.556 43.8603L155.718 42.7317C155.31 44.1183 155.232 45.544 155.472 46.9848L159.418 46.3272ZM159.523 43.9616C159.627 43.6678 159.728 43.5655 159.76 43.5376C159.781 43.5196 159.832 43.4771 159.997 43.4566L159.501 39.4874C158.642 39.5949 157.829 39.9204 157.146 40.5104C156.474 41.0905 156.031 41.8362 155.751 42.6304L159.523 43.9616ZM160.046 43.4499C160.507 43.3807 160.914 43.4703 161.434 44.1399L164.592 41.6841C163.32 40.0497 161.551 39.1793 159.452 39.4941L160.046 43.4499ZM161.469 44.1834C162.139 44.9964 162.474 45.8143 162.559 46.663L166.539 46.265C166.368 44.5537 165.679 43.0036 164.557 41.6406L161.469 44.1834ZM193.658 21.504L192.244 20.0898L191.035 21.2982L192.041 22.6803L193.658 21.504ZM195.098 24.192L193.249 24.9535L193.276 25.0211L193.309 25.0864L195.098 24.192ZM196.25 27.36L198.202 26.9261L198.2 26.914L198.197 26.9019L196.25 27.36ZM197.498 33.024L195.544 33.4514L195.552 33.4877L195.561 33.5238L197.498 33.024ZM198.938 39.264L196.979 39.6673L196.985 39.6948L196.991 39.7221L198.938 39.264ZM200.282 45.888L198.311 46.2259L198.315 46.2531L198.321 46.2802L200.282 45.888ZM201.434 52.32L203.416 52.0498L203.413 52.0305L203.41 52.0112L201.434 52.32ZM200.762 60.384L198.86 59.7658L198.851 59.7939L198.843 59.8222L200.762 60.384ZM196.826 67.392L195.344 66.049L195.344 66.049L196.826 67.392ZM189.914 72.288L190.722 74.1174L190.722 74.1174L189.914 72.288ZM180.602 74.304L180.436 76.2971L180.556 76.3071L180.676 76.3026L180.602 74.304ZM178.202 73.152L179.494 71.6252L179.458 71.5951L179.421 71.5668L178.202 73.152ZM176.954 71.136H178.954V71.0453L178.946 70.9549L176.954 71.136ZM177.914 69.408L177.02 67.6191L176.927 67.6653L176.84 67.7207L177.914 69.408ZM180.218 68.64L180.028 66.649L179.958 66.6557L179.889 66.6672L180.218 68.64ZM184.346 67.776L183.841 65.8408L183.79 65.8541L183.74 65.8701L184.346 67.776ZM188.474 66.048L189.503 67.763L189.503 67.763L188.474 66.048ZM191.93 63.264L190.516 61.8498L190.494 61.8712L190.474 61.8933L191.93 63.264ZM194.426 59.424L196.288 60.1528L196.29 60.1489L194.426 59.424ZM194.714 50.112L192.727 50.3412L192.732 50.3788L192.737 50.4161L194.714 50.112ZM193.85 45.408L191.892 45.8159L191.902 45.8647L191.915 45.9128L193.85 45.408ZM192.986 41.952L194.883 41.3195L193.86 38.2495L191.572 40.5378L192.986 41.952ZM191.258 43.392L190.082 41.7745L190.044 41.8016L190.009 41.8303L191.258 43.392ZM189.05 44.832L189.998 46.5929L189.998 46.5929L189.05 44.832ZM186.266 45.888L185.781 43.9477L185.766 43.9515L185.751 43.9555L186.266 45.888ZM183.29 46.176L183.415 44.1799L183.407 44.1795L183.29 46.176ZM180.218 45.024L178.982 46.5966L179.008 46.6172L179.035 46.6368L180.218 45.024ZM177.818 42.336L176.111 43.3789L176.125 43.4009L176.139 43.4225L177.818 42.336ZM176.09 38.4L174.155 38.9048L174.165 38.9438L174.177 38.9823L176.09 38.4ZM175.514 33.792L173.515 33.7254L173.514 33.7587V33.792H175.514ZM178.394 23.616L176.692 22.5658L176.686 22.5761L178.394 23.616ZM187.226 16.608L186.834 14.6468L186.643 14.685L186.463 14.7592L187.226 16.608ZM188.474 16.416L188.253 14.4282L188.24 14.4297L188.226 14.4314L188.474 16.416ZM190.202 16.416L189.981 18.4038L190.091 18.416H190.202V16.416ZM191.834 16.608L191.349 18.5483L191.374 18.5547L191.4 18.5604L191.834 16.608ZM193.274 17.184L194.45 15.5665L194.417 15.5425L194.383 15.5199L193.274 17.184ZM181.754 37.056L179.774 37.3388L179.776 37.3495L179.777 37.3601L181.754 37.056ZM183.002 38.88L184.01 37.1524L183.985 37.138L183.96 37.1242L183.002 38.88ZM185.786 39.072L185.251 37.145L185.236 37.149L185.222 37.1533L185.786 39.072ZM188.954 37.44L187.718 35.8674L187.711 35.8728L187.705 35.8783L188.954 37.44ZM190.682 35.136L188.799 34.4633L188.784 34.5053L188.77 34.5478L190.682 35.136ZM190.682 31.584L188.728 32.0089L188.728 32.0089L190.682 31.584ZM188.858 22.656L190.848 22.457L190.559 19.5693L187.964 20.8671L188.858 22.656ZM186.362 24.288L185.126 22.7154L185.098 22.7378L185.07 22.7612L186.362 24.288ZM184.058 26.976L185.706 28.1091L185.722 28.086L185.737 28.0625L184.058 26.976ZM182.234 30.432L180.377 29.6892L180.361 29.7299L180.346 29.7713L182.234 30.432ZM192.041 22.6803C192.433 23.2198 192.842 23.9648 193.249 24.9535L196.947 23.4305C196.458 22.2432 195.907 21.1962 195.275 20.3277L192.041 22.6803ZM193.309 25.0864C193.753 25.975 194.084 26.8848 194.303 27.8181L198.197 26.9019C197.904 25.6592 197.467 24.457 196.887 23.2976L193.309 25.0864ZM194.298 27.7939C194.681 29.5194 195.097 31.4052 195.544 33.4514L199.452 32.5966C199.003 30.5468 198.587 28.6566 198.202 26.9261L194.298 27.7939ZM195.561 33.5238C196.065 35.4733 196.537 37.521 196.979 39.6673L200.897 38.8607C200.443 36.655 199.955 34.5427 199.435 32.5242L195.561 33.5238ZM196.991 39.7221C197.494 41.8576 197.934 44.0255 198.311 46.2259L202.253 45.5501C201.862 43.2705 201.406 41.0224 200.885 38.8059L196.991 39.7221ZM198.321 46.2802C198.764 48.4953 199.143 50.6113 199.458 52.6288L203.41 52.0112C203.085 49.9327 202.696 47.7607 202.243 45.4958L198.321 46.2802ZM199.452 52.5902C199.798 55.1249 199.594 57.5081 198.86 59.7658L202.664 61.0022C203.594 58.1399 203.838 55.1471 203.416 52.0498L199.452 52.5902ZM198.843 59.8222C198.16 62.1528 196.999 64.2224 195.344 66.049L198.308 68.735C200.365 66.4656 201.828 63.8632 202.681 60.9458L198.843 59.8222ZM195.344 66.049C193.692 67.8717 191.624 69.3457 189.106 70.4586L190.722 74.1174C193.708 72.7983 196.248 71.0083 198.308 68.735L195.344 66.049ZM189.106 70.4586C186.617 71.5581 183.768 72.1854 180.528 72.3054L180.676 76.3026C184.348 76.1666 187.707 75.4499 190.722 74.1174L189.106 70.4586ZM180.768 72.3109C180.554 72.2931 180.135 72.1681 179.494 71.6252L176.91 74.6788C177.933 75.5439 179.114 76.1869 180.436 76.2971L180.768 72.3109ZM179.421 71.5668C179.137 71.3483 179.014 71.1912 178.967 71.1153C178.93 71.0557 178.954 71.0718 178.954 71.136H174.954C174.954 72.7199 175.908 73.911 176.983 74.7372L179.421 71.5668ZM178.946 70.9549C178.946 70.9547 178.948 70.9806 178.939 71.0242C178.93 71.0691 178.914 71.1122 178.894 71.1473C178.855 71.2179 178.843 71.1871 178.988 71.0953L176.84 67.7207C176.281 68.0769 175.757 68.5581 175.398 69.2047C175.028 69.8696 174.897 70.5958 174.962 71.3171L178.946 70.9549ZM178.808 71.1969C179.416 70.8929 179.995 70.7048 180.547 70.6128L179.889 66.6672C178.905 66.8312 177.948 67.1551 177.02 67.6191L178.808 71.1969ZM180.408 70.631C181.906 70.4883 183.421 70.169 184.952 69.6819L183.74 65.8701C182.455 66.279 181.218 66.5357 180.028 66.649L180.408 70.631ZM184.851 69.7112C186.504 69.2801 188.057 68.6309 189.503 67.763L187.445 64.333C186.331 65.0011 185.132 65.5039 183.841 65.8408L184.851 69.7112ZM189.503 67.763C190.941 66.9003 192.237 65.8565 193.386 64.6347L190.474 61.8933C189.575 62.8475 188.567 63.6597 187.445 64.333L189.503 67.763ZM193.344 64.6782C194.633 63.3897 195.615 61.8745 196.288 60.1528L192.564 58.6952C192.085 59.9175 191.403 60.9623 190.516 61.8498L193.344 64.6782ZM196.29 60.1489C196.853 58.701 197.098 57.0313 197.098 55.2H193.098C193.098 56.6966 192.895 57.843 192.562 58.6991L196.29 60.1489ZM197.098 55.2C197.098 53.3729 196.963 51.5751 196.691 49.8079L192.737 50.4161C192.977 51.9769 193.098 53.5711 193.098 55.2H197.098ZM196.701 49.8828C196.499 48.135 196.195 46.4742 195.785 44.9032L191.915 45.9128C192.273 47.2858 192.545 48.761 192.727 50.3412L196.701 49.8828ZM195.808 45.0001C195.484 43.4445 195.177 42.2007 194.883 41.3195L191.089 42.5845C191.307 43.2392 191.576 44.2995 191.892 45.8159L195.808 45.0001ZM191.572 40.5378C191.219 40.8904 190.73 41.303 190.082 41.7745L192.434 45.0095C193.194 44.457 193.857 43.9096 194.4 43.3662L191.572 40.5378ZM190.009 41.8303C189.476 42.2565 188.843 42.6718 188.102 43.0711L189.998 46.5929C190.921 46.0962 191.76 45.5515 192.507 44.9537L190.009 41.8303ZM188.102 43.0711C187.432 43.4317 186.662 43.7274 185.781 43.9477L186.751 47.8283C187.918 47.5366 189.004 47.1283 189.998 46.5929L188.102 43.0711ZM185.751 43.9555C185.006 44.1541 184.23 44.2309 183.415 44.1799L183.165 48.1721C184.398 48.2491 185.606 48.1339 186.781 47.8205L185.751 43.9555ZM183.407 44.1795C182.739 44.1402 182.08 43.9092 181.401 43.4112L179.035 46.6368C180.276 47.5468 181.665 48.0838 183.173 48.1725L183.407 44.1795ZM181.454 43.4514C180.753 42.9011 180.097 42.1772 179.497 41.2495L176.139 43.4225C176.947 44.6708 177.891 45.7389 178.982 46.5966L181.454 43.4514ZM179.525 41.2931C178.92 40.3037 178.409 39.1501 178.003 37.8177L174.177 38.9823C174.667 40.5939 175.308 42.0643 176.111 43.3789L179.525 41.2931ZM178.025 37.8952C177.686 36.5963 177.514 35.2305 177.514 33.792H173.514C173.514 35.5535 173.726 37.2597 174.155 38.9048L178.025 37.8952ZM177.513 33.8586C177.631 30.3223 178.509 27.2732 180.102 24.6559L176.686 22.5761C174.695 25.8468 173.653 29.5817 173.515 33.7254L177.513 33.8586ZM180.096 24.6662C181.684 22.0933 184.254 19.9983 187.989 18.4567L186.463 14.7592C182.134 16.5457 178.816 19.1227 176.692 22.5658L180.096 24.6662ZM187.618 18.5692C187.871 18.5185 188.234 18.4615 188.722 18.4006L188.226 14.4314C187.69 14.4985 187.221 14.5695 186.834 14.6468L187.618 18.5692ZM188.695 18.4038C189.124 18.3561 189.552 18.3561 189.981 18.4038L190.423 14.4282C189.7 14.3479 188.976 14.3479 188.253 14.4282L188.695 18.4038ZM190.202 18.416C190.629 18.416 191.009 18.4634 191.349 18.5483L192.319 14.6677C191.635 14.4966 190.927 14.416 190.202 14.416V18.416ZM191.4 18.5604C191.799 18.6491 192.034 18.7613 192.165 18.8481L194.383 15.5199C193.746 15.0947 193.021 14.8229 192.268 14.6556L191.4 18.5604ZM192.098 18.8015C192.225 18.8944 192.33 18.9956 192.33 19.392H196.33C196.33 17.8684 195.731 16.4976 194.45 15.5665L192.098 18.8015ZM192.33 19.392C192.33 20.0905 192.162 20.1718 192.244 20.0898L195.072 22.9182C196.05 21.9402 196.33 20.6135 196.33 19.392H192.33ZM179.562 34.656C179.562 35.4769 179.636 36.3741 179.774 37.3388L183.734 36.7732C183.616 35.9459 183.562 35.2431 183.562 34.656H179.562ZM179.777 37.3601C179.995 38.7727 180.762 39.9363 182.044 40.6358L183.96 37.1242C183.86 37.0697 183.827 37.0275 183.813 37.0066C183.796 36.9829 183.756 36.9142 183.731 36.7519L179.777 37.3601ZM181.994 40.6076C183.361 41.4045 184.888 41.4207 186.35 40.9907L185.222 37.1533C184.508 37.3633 184.179 37.2515 184.01 37.1524L181.994 40.6076ZM186.321 40.999C187.741 40.6047 189.039 39.9336 190.203 39.0017L187.705 35.8783C186.949 36.4824 186.135 36.8993 185.251 37.145L186.321 40.999ZM190.19 39.0126C191.308 38.134 192.186 37.0497 192.594 35.7242L188.77 34.5478C188.666 34.8863 188.392 35.338 187.718 35.8674L190.19 39.0126ZM192.565 35.8087C193.065 34.4113 192.994 32.8021 192.636 31.1591L188.728 32.0089C189.01 33.3099 188.939 34.0687 188.799 34.4633L192.565 35.8087ZM192.636 31.1591C192.313 29.6719 191.958 28.1219 191.571 26.5093L187.681 27.4427C188.062 29.0301 188.411 30.5521 188.728 32.0089L192.636 31.1591ZM191.571 26.5093C191.202 24.9744 190.965 23.626 190.848 22.457L186.868 22.855C187.007 24.246 187.282 25.7776 187.681 27.4427L191.571 26.5093ZM187.964 20.8671C187.043 21.3274 186.096 21.9532 185.126 22.7154L187.598 25.8606C188.42 25.2148 189.137 24.7526 189.752 24.4449L187.964 20.8671ZM185.07 22.7612C184.063 23.6135 183.17 24.6667 182.379 25.8895L185.737 28.0625C186.354 27.1093 186.997 26.3705 187.654 25.8148L185.07 22.7612ZM182.41 25.8429C181.614 27.0013 180.938 28.2866 180.377 29.6892L184.091 31.1748C184.554 30.0174 185.094 28.9987 185.706 28.1091L182.41 25.8429ZM180.346 29.7713C179.815 31.2898 179.562 32.9245 179.562 34.656H183.562C183.562 33.3155 183.757 32.1342 184.122 31.0927L180.346 29.7713ZM226.189 21.504L224.775 20.0898L223.567 21.2982L224.572 22.6803L226.189 21.504ZM227.629 24.192L225.78 24.9535L225.808 25.0211L225.84 25.0864L227.629 24.192ZM228.781 27.36L230.734 26.9261L230.731 26.914L230.728 26.9019L228.781 27.36ZM230.029 33.024L228.075 33.4514L228.083 33.4877L228.093 33.5238L230.029 33.024ZM231.469 39.264L229.51 39.6673L229.516 39.6948L229.522 39.7221L231.469 39.264ZM232.813 45.888L230.842 46.2259L230.847 46.2531L230.852 46.2802L232.813 45.888ZM233.965 52.32L235.947 52.0498L235.944 52.0305L235.941 52.0112L233.965 52.32ZM233.293 60.384L231.391 59.7658L231.382 59.7939L231.374 59.8222L233.293 60.384ZM229.357 67.392L227.875 66.049L227.875 66.049L229.357 67.392ZM222.445 72.288L223.254 74.1174L223.254 74.1174L222.445 72.288ZM213.133 74.304L212.967 76.2971L213.087 76.3071L213.207 76.3026L213.133 74.304ZM210.733 73.152L212.025 71.6252L211.99 71.5951L211.953 71.5668L210.733 73.152ZM209.485 71.136H211.485V71.0453L211.477 70.9549L209.485 71.136ZM210.445 69.408L209.551 67.6191L209.459 67.6653L209.371 67.7207L210.445 69.408ZM212.749 68.64L212.56 66.649L212.49 66.6557L212.42 66.6672L212.749 68.64ZM216.877 67.776L216.372 65.8408L216.321 65.8541L216.271 65.8701L216.877 67.776ZM221.005 66.048L222.034 67.763L222.034 67.763L221.005 66.048ZM224.461 63.264L223.047 61.8498L223.026 61.8712L223.005 61.8933L224.461 63.264ZM226.957 59.424L228.82 60.1528L228.821 60.1489L226.957 59.424ZM227.245 50.112L225.258 50.3412L225.263 50.3788L225.269 50.4161L227.245 50.112ZM226.381 45.408L224.423 45.8159L224.433 45.8647L224.446 45.9128L226.381 45.408ZM225.517 41.952L227.415 41.3195L226.391 38.2495L224.103 40.5378L225.517 41.952ZM223.789 43.392L222.613 41.7745L222.576 41.8016L222.54 41.8303L223.789 43.392ZM221.581 44.832L222.529 46.5929L222.529 46.5929L221.581 44.832ZM218.797 45.888L218.312 43.9477L218.297 43.9515L218.282 43.9555L218.797 45.888ZM215.821 46.176L215.946 44.1799L215.939 44.1795L215.821 46.176ZM212.749 45.024L211.514 46.5966L211.54 46.6172L211.567 46.6368L212.749 45.024ZM210.349 42.336L208.643 43.3789L208.656 43.4009L208.67 43.4225L210.349 42.336ZM208.621 38.4L206.686 38.9048L206.696 38.9438L206.708 38.9823L208.621 38.4ZM208.045 33.792L206.046 33.7254L206.045 33.7587V33.792H208.045ZM210.925 23.616L209.223 22.5658L209.217 22.5761L210.925 23.616ZM219.757 16.608L219.365 14.6468L219.174 14.685L218.994 14.7592L219.757 16.608ZM221.005 16.416L220.784 14.4282L220.771 14.4297L220.757 14.4314L221.005 16.416ZM222.733 16.416L222.512 18.4038L222.622 18.416H222.733V16.416ZM224.365 16.608L223.88 18.5483L223.906 18.5547L223.931 18.5604L224.365 16.608ZM225.805 17.184L226.982 15.5665L226.949 15.5425L226.915 15.5199L225.805 17.184ZM214.285 37.056L212.305 37.3388L212.307 37.3495L212.309 37.3601L214.285 37.056ZM215.533 38.88L216.541 37.1524L216.516 37.138L216.491 37.1242L215.533 38.88ZM218.317 39.072L217.782 37.145L217.767 37.149L217.753 37.1533L218.317 39.072ZM221.485 37.44L220.25 35.8674L220.243 35.8728L220.236 35.8783L221.485 37.44ZM223.213 35.136L221.33 34.4633L221.315 34.5053L221.302 34.5478L223.213 35.136ZM223.213 31.584L221.259 32.0089L221.259 32.0089L223.213 31.584ZM221.389 22.656L223.379 22.457L223.091 19.5693L220.495 20.8671L221.389 22.656ZM218.893 24.288L217.658 22.7154L217.629 22.7378L217.601 22.7612L218.893 24.288ZM216.589 26.976L218.237 28.1091L218.253 28.086L218.268 28.0625L216.589 26.976ZM214.765 30.432L212.908 29.6892L212.892 29.7299L212.878 29.7713L214.765 30.432ZM224.572 22.6803C224.964 23.2198 225.373 23.9648 225.78 24.9535L229.479 23.4305C228.99 22.2432 228.438 21.1962 227.807 20.3277L224.572 22.6803ZM225.84 25.0864C226.285 25.975 226.615 26.8848 226.834 27.8181L230.728 26.9019C230.436 25.6592 229.998 24.457 229.418 23.2976L225.84 25.0864ZM226.829 27.7939C227.212 29.5194 227.628 31.4052 228.075 33.4514L231.983 32.5966C231.535 30.5468 231.118 28.6566 230.734 26.9261L226.829 27.7939ZM228.093 33.5238C228.596 35.4733 229.068 37.521 229.51 39.6673L233.428 38.8607C232.974 36.655 232.487 34.5427 231.966 32.5242L228.093 33.5238ZM229.522 39.7221C230.025 41.8576 230.465 44.0255 230.842 46.2259L234.784 45.5501C234.394 43.2705 233.938 41.0224 233.416 38.8059L229.522 39.7221ZM230.852 46.2802C231.295 48.4953 231.674 50.6113 231.989 52.6288L235.941 52.0112C235.616 49.9327 235.227 47.7607 234.774 45.4958L230.852 46.2802ZM231.984 52.5902C232.329 55.1249 232.125 57.5081 231.391 59.7658L235.195 61.0022C236.126 58.1399 236.369 55.1471 235.947 52.0498L231.984 52.5902ZM231.374 59.8222C230.692 62.1528 229.531 64.2224 227.875 66.049L230.839 68.735C232.896 66.4656 234.359 63.8632 235.213 60.9458L231.374 59.8222ZM227.875 66.049C226.223 67.8717 224.156 69.3457 221.637 70.4586L223.254 74.1174C226.239 72.7983 228.779 71.0083 230.839 68.735L227.875 66.049ZM221.637 70.4586C219.149 71.5581 216.299 72.1854 213.059 72.3054L213.207 76.3026C216.879 76.1666 220.238 75.4499 223.254 74.1174L221.637 70.4586ZM213.299 72.3109C213.086 72.2931 212.667 72.1681 212.025 71.6252L209.441 74.6788C210.464 75.5439 211.645 76.1869 212.967 76.2971L213.299 72.3109ZM211.953 71.5668C211.669 71.3483 211.545 71.1912 211.498 71.1153C211.461 71.0557 211.485 71.0718 211.485 71.136H207.485C207.485 72.7199 208.44 73.911 209.514 74.7372L211.953 71.5668ZM211.477 70.9549C211.477 70.9547 211.479 70.9806 211.47 71.0242C211.461 71.0691 211.445 71.1122 211.426 71.1473C211.386 71.2179 211.375 71.1871 211.519 71.0953L209.371 67.7207C208.812 68.0769 208.288 68.5581 207.929 69.2047C207.56 69.8696 207.428 70.5958 207.493 71.3171L211.477 70.9549ZM211.34 71.1969C211.948 70.8929 212.526 70.7048 213.078 70.6128L212.42 66.6672C211.437 66.8312 210.479 67.1551 209.551 67.6191L211.34 71.1969ZM212.939 70.631C214.437 70.4883 215.953 70.169 217.484 69.6819L216.271 65.8701C214.986 66.279 213.749 66.5357 212.56 66.649L212.939 70.631ZM217.382 69.7112C219.035 69.2801 220.588 68.6309 222.034 67.763L219.976 64.333C218.863 65.0011 217.664 65.5039 216.372 65.8408L217.382 69.7112ZM222.034 67.763C223.472 66.9003 224.768 65.8565 225.918 64.6347L223.005 61.8933C222.107 62.8475 221.099 63.6597 219.976 64.333L222.034 67.763ZM225.875 64.6782C227.164 63.3897 228.146 61.8745 228.82 60.1528L225.095 58.6952C224.616 59.9175 223.935 60.9623 223.047 61.8498L225.875 64.6782ZM228.821 60.1489C229.384 58.701 229.629 57.0313 229.629 55.2H225.629C225.629 56.6966 225.426 57.843 225.093 58.6991L228.821 60.1489ZM229.629 55.2C229.629 53.3729 229.494 51.5751 229.222 49.8079L225.269 50.4161C225.509 51.9769 225.629 53.5711 225.629 55.2H229.629ZM229.232 49.8828C229.03 48.135 228.726 46.4742 228.316 44.9032L224.446 45.9128C224.804 47.2858 225.076 48.761 225.258 50.3412L229.232 49.8828ZM228.339 45.0001C228.015 43.4445 227.708 42.2007 227.415 41.3195L223.62 42.5845C223.838 43.2392 224.107 44.2995 224.423 45.8159L228.339 45.0001ZM224.103 40.5378C223.75 40.8904 223.261 41.303 222.613 41.7745L224.966 45.0095C225.725 44.457 226.388 43.9096 226.931 43.3662L224.103 40.5378ZM222.54 41.8303C222.007 42.2565 221.375 42.6718 220.633 43.0711L222.529 46.5929C223.452 46.0962 224.291 45.5515 225.039 44.9537L222.54 41.8303ZM220.633 43.0711C219.963 43.4317 219.193 43.7274 218.312 43.9477L219.282 47.8283C220.449 47.5366 221.535 47.1283 222.529 46.5929L220.633 43.0711ZM218.282 43.9555C217.537 44.1541 216.762 44.2309 215.946 44.1799L215.696 48.1721C216.929 48.2491 218.137 48.1339 219.313 47.8205L218.282 43.9555ZM215.939 44.1795C215.271 44.1402 214.611 43.9092 213.932 43.4112L211.567 46.6368C212.807 47.5468 214.196 48.0838 215.704 48.1725L215.939 44.1795ZM213.985 43.4514C213.285 42.9011 212.629 42.1772 212.028 41.2495L208.67 43.4225C209.478 44.6708 210.422 45.7389 211.514 46.5966L213.985 43.4514ZM212.056 41.2931C211.451 40.3037 210.94 39.1501 210.535 37.8177L206.708 38.9823C207.198 40.5939 207.839 42.0643 208.643 43.3789L212.056 41.2931ZM210.556 37.8952C210.218 36.5963 210.045 35.2305 210.045 33.792H206.045C206.045 35.5535 206.257 37.2597 206.686 38.9048L210.556 37.8952ZM210.044 33.8586C210.162 30.3223 211.04 27.2732 212.634 24.6559L209.217 22.5761C207.226 25.8468 206.184 29.5817 206.046 33.7254L210.044 33.8586ZM212.627 24.6662C214.215 22.0933 216.785 19.9983 220.52 18.4567L218.994 14.7592C214.665 16.5457 211.348 19.1227 209.223 22.5658L212.627 24.6662ZM220.149 18.5692C220.403 18.5185 220.765 18.4615 221.253 18.4006L220.757 14.4314C220.221 14.4985 219.752 14.5695 219.365 14.6468L220.149 18.5692ZM221.226 18.4038C221.655 18.3561 222.083 18.3561 222.512 18.4038L222.954 14.4282C222.231 14.3479 221.507 14.3479 220.784 14.4282L221.226 18.4038ZM222.733 18.416C223.16 18.416 223.541 18.4634 223.88 18.5483L224.85 14.6677C224.166 14.4966 223.458 14.416 222.733 14.416V18.416ZM223.931 18.5604C224.33 18.6491 224.566 18.7613 224.696 18.8481L226.915 15.5199C226.277 15.0947 225.552 14.8229 224.799 14.6556L223.931 18.5604ZM224.629 18.8015C224.757 18.8944 224.861 18.9956 224.861 19.392H228.861C228.861 17.8684 228.262 16.4976 226.982 15.5665L224.629 18.8015ZM224.861 19.392C224.861 20.0905 224.693 20.1718 224.775 20.0898L227.603 22.9182C228.581 21.9402 228.861 20.6135 228.861 19.392H224.861ZM212.093 34.656C212.093 35.4769 212.168 36.3741 212.305 37.3388L216.265 36.7732C216.147 35.9459 216.093 35.2431 216.093 34.656H212.093ZM212.309 37.3601C212.526 38.7727 213.293 39.9363 214.576 40.6358L216.491 37.1242C216.391 37.0697 216.358 37.0275 216.344 37.0066C216.328 36.9829 216.287 36.9142 216.262 36.7519L212.309 37.3601ZM214.526 40.6076C215.892 41.4045 217.42 41.4207 218.882 40.9907L217.753 37.1533C217.039 37.3633 216.711 37.2515 216.541 37.1524L214.526 40.6076ZM218.853 40.999C220.272 40.6047 221.57 39.9336 222.735 39.0017L220.236 35.8783C219.481 36.4824 218.666 36.8993 217.782 37.145L218.853 40.999ZM222.721 39.0126C223.839 38.134 224.717 37.0497 225.125 35.7242L221.302 34.5478C221.198 34.8863 220.923 35.338 220.25 35.8674L222.721 39.0126ZM225.097 35.8087C225.596 34.4113 225.525 32.8021 225.168 31.1591L221.259 32.0089C221.542 33.3099 221.471 34.0687 221.33 34.4633L225.097 35.8087ZM225.168 31.1591C224.844 29.6719 224.489 28.1219 224.102 26.5093L220.212 27.4427C220.593 29.0301 220.942 30.5521 221.259 32.0089L225.168 31.1591ZM224.102 26.5093C223.734 24.9744 223.496 23.626 223.379 22.457L219.399 22.855C219.538 24.246 219.813 25.7776 220.212 27.4427L224.102 26.5093ZM220.495 20.8671C219.574 21.3274 218.628 21.9532 217.658 22.7154L220.129 25.8606C220.951 25.2148 221.668 24.7526 222.284 24.4449L220.495 20.8671ZM217.601 22.7612C216.594 23.6135 215.701 24.6667 214.91 25.8895L218.268 28.0625C218.885 27.1093 219.528 26.3705 220.185 25.8148L217.601 22.7612ZM214.941 25.8429C214.145 27.0013 213.469 28.2866 212.908 29.6892L216.622 31.1748C217.085 30.0174 217.626 28.9987 218.237 28.1091L214.941 25.8429ZM212.878 29.7713C212.346 31.2898 212.093 32.9245 212.093 34.656H216.093C216.093 33.3155 216.288 32.1342 216.653 31.0927L212.878 29.7713Z" fill="black"/>
</g>
<defs>
<filter id="filter0_d_101_2" x="0.424011" y="0.287994" width="238.117" height="82.016" filterUnits="userSpaceOnUse" color-interpolation-filters="sRGB">
<feFlood flood-opacity="0" result="BackgroundImageFix"/>
<feColorMatrix in="SourceAlpha" type="matrix" values="0 0 0 0 0 0 0 0 0 0 0 0 0 0 0 0 0 0 127 0" result="hardAlpha"/>
<feOffset dy="4"/>
<feGaussianBlur stdDeviation="2"/>
<feComposite in2="hardAlpha" operator="out"/>
<feColorMatrix type="matrix" values="0 0 0 0 0 0 0 0 0 0 0 0 0 0 0 0 0 0 0.25 0"/>
<feBlend mode="normal" in2="BackgroundImageFix" result="effect1_dropShadow_101_2"/>
<feBlend mode="normal" in="SourceGraphic" in2="effect1_dropShadow_101_2" result="shape"/>
</filter>
</defs>
</svg>
